<svg width="475" height="300" viewBox="0 0 475 300" fill="none" xmlns="http://www.w3.org/2000/svg">
<path d="M12.8174 258.36C12.8174 256.082 14.2985 254.316 17.2607 253.062C18.8558 252.151 20.6217 251.581 22.5586 251.354C24.4954 251.126 26.3753 251.012 28.1982 251.012C28.7679 251.012 29.3376 250.955 29.9072 250.841C30.4769 250.727 30.9896 250.67 31.4453 250.67C32.015 250.67 33.2113 250.556 35.0342 250.328C36.8571 250.1 38.737 249.758 40.6738 249.303C41.6992 249.075 42.6676 248.847 43.5791 248.619C44.6045 248.277 45.402 248.106 45.9717 248.106C46.8831 247.879 48.0225 247.366 49.3896 246.568C50.8708 245.657 52.238 244.688 53.4912 243.663C54.8584 242.524 55.9977 241.384 56.9092 240.245C57.9346 238.992 58.4473 237.853 58.4473 236.827L58.96 217.003C58.96 215.066 58.7321 212.844 58.2764 210.338C57.9346 207.831 57.7637 205.61 57.7637 203.673C57.7637 200.825 57.9346 197.748 58.2764 194.444C58.7321 191.026 58.96 187.893 58.96 185.045C58.0485 182.311 58.0485 179.063 58.96 175.304V153.771C58.96 152.973 58.903 151.435 58.7891 149.156C58.6751 146.878 58.6182 144.485 58.6182 141.979C58.5042 139.586 58.4473 137.364 58.4473 135.313C58.4473 133.149 58.4473 131.611 58.4473 130.699L58.96 126.769C59.1878 125.857 59.3587 124.889 59.4727 123.863C59.7005 122.838 59.8145 122.439 59.8145 122.667V120.616V111.217V104.894V99.5957C59.7005 99.3678 59.5296 98.9121 59.3018 98.2285C59.0739 97.5449 58.846 96.9183 58.6182 96.3486C58.6182 96.1208 58.5612 96.0068 58.4473 96.0068C58.4473 95.8929 58.4473 95.722 58.4473 95.4941C58.4473 95.1523 58.3333 94.2979 58.1055 92.9307C57.8776 91.5635 57.7637 90.1393 57.7637 88.6582C57.6497 87.0632 57.5358 85.696 57.4219 84.5566C57.3079 83.4173 57.251 82.6198 57.251 82.1641C57.0231 81.9362 56.7952 81.4805 56.5674 80.7969C56.3395 80.1133 56.0547 79.3158 55.7129 78.4043C55.485 77.8346 55.1432 77.0941 54.6875 76.1826C54.3457 75.2712 54.2887 74.9294 54.5166 75.1572C54.2887 74.3597 54.0609 73.6761 53.833 73.1064C53.7191 72.4229 53.5482 71.7962 53.3203 71.2266C52.8646 68.834 52.2949 66.8402 51.6113 65.2451C50.9277 63.6501 49.4466 62.1689 47.168 60.8018C46.9401 60.8018 46.4274 60.6309 45.6299 60.2891C44.8324 59.9473 43.9209 59.5485 42.8955 59.0928C41.984 58.637 41.1296 58.2383 40.332 57.8965C39.5345 57.4408 38.9648 57.1559 38.623 57.042C38.623 56.8141 38.1673 56.1875 37.2559 55.1621C36.4583 54.0228 35.8317 52.9974 35.376 52.0859C35.1481 51.8581 34.9772 51.5163 34.8633 51.0605C34.7493 50.6048 34.6354 50.2061 34.5215 49.8643C34.2936 49.2946 34.1227 48.8958 34.0088 48.668C33.8949 48.3262 33.8379 48.0413 33.8379 47.8135C33.724 47.6995 33.5531 47.5856 33.3252 47.4717C33.0973 47.3577 32.7555 47.0729 32.2998 46.6172C29.7933 44.9082 27.5146 43.0283 25.4639 40.9775C23.527 38.8128 21.4762 36.4772 19.3115 33.9707C19.3115 33.7428 19.1406 33.458 18.7988 33.1162C18.571 33.1162 18.457 33.0592 18.457 32.9453V32.7744C18.6849 32.7744 18.571 32.6605 18.1152 32.4326C17.6595 32.2048 17.2038 31.9199 16.748 31.5781C16.2923 31.1224 15.7796 30.7806 15.21 30.5527C14.6403 30.3249 14.2415 30.097 14.0137 29.8691L12.6465 27.8184C12.0768 27.2487 11.5072 26.5651 10.9375 25.7676C10.3678 24.9701 9.85514 24.0586 9.39941 23.0332C10.9945 21.7799 12.7604 20.8115 14.6973 20.1279C16.748 19.3304 18.9128 18.9316 21.1914 18.9316H22.5586C24.1536 19.1595 27.002 19.5013 31.1035 19.957C35.2051 20.2988 39.4775 20.6406 43.9209 20.9824C46.4274 21.2103 48.877 21.4382 51.2695 21.666C53.776 21.7799 56.0547 21.9508 58.1055 22.1787C60.2702 22.2926 62.1501 22.4635 63.7451 22.6914C65.3402 22.8053 66.5934 22.9193 67.5049 23.0332C67.8467 23.2611 68.4163 23.6598 69.2139 24.2295C70.0114 24.7992 70.8089 25.4258 71.6064 26.1094C72.5179 26.679 73.3154 27.2487 73.999 27.8184C74.6826 28.388 75.1953 28.8438 75.5371 29.1855C75.9928 30.7806 76.2777 31.6921 76.3916 31.9199C76.5055 32.1478 76.7334 32.2617 77.0752 32.2617C77.3031 32.4896 77.9297 33.0592 78.9551 33.9707C79.9805 34.8822 80.6071 35.5658 80.835 36.0215C81.0628 36.0215 81.4616 36.1924 82.0312 36.5342C82.6009 36.876 83.1136 37.3317 83.5693 37.9014C83.6833 37.9014 83.8542 38.0153 84.082 38.2432C84.3099 38.3571 84.6517 38.6419 85.1074 39.0977C85.6771 39.5534 86.4176 40.2939 87.3291 41.3193C88.3545 42.2308 89.7217 43.541 91.4307 45.25C92.4561 46.0475 93.0827 46.7311 93.3105 47.3008C93.9941 48.554 94.3929 49.2946 94.5068 49.5225C94.6208 49.7503 94.6777 49.9782 94.6777 50.2061C94.9056 50.5479 95.2474 51.2314 95.7031 52.2568C96.1589 53.2822 96.6146 54.4215 97.0703 55.6748C97.526 56.8141 97.9248 57.8965 98.2666 58.9219C98.6084 59.9473 98.8363 60.5739 98.9502 60.8018C99.5199 62.3968 100.374 63.5931 101.514 64.3906C102.767 65.1882 104.077 65.9857 105.444 66.7832C106.698 67.3529 107.951 68.1504 109.204 69.1758C110.457 70.0872 111.369 71.0557 111.938 72.0811C112.166 72.5368 112.394 72.9355 112.622 73.2773C112.85 73.6191 113.192 74.3027 113.647 75.3281C114.331 76.2396 115.129 77.265 116.04 78.4043C116.951 79.4297 118.49 81.0817 120.654 83.3604C122.819 85.5251 125.838 88.4873 129.712 92.2471C133.586 95.8929 138.883 100.792 145.605 106.944C146.061 107.97 146.631 109.052 147.314 110.191C147.998 111.217 148.796 112.242 149.707 113.268C152.555 115.888 154.549 119.021 155.688 122.667C158.765 125.629 161.784 128.705 164.746 131.896C167.708 135.086 170.671 138.333 173.633 141.637C178.418 146.764 183.203 151.777 187.988 156.676C192.773 161.575 198.071 166.189 203.882 170.519C204.11 170.86 204.451 171.316 204.907 171.886C205.363 172.455 205.819 173.196 206.274 174.107C206.388 174.563 206.673 175.019 207.129 175.475C207.699 175.816 208.268 176.329 208.838 177.013C210.889 178.608 212.712 180.374 214.307 182.311C215.902 184.247 217.668 186.241 219.604 188.292C221.086 189.887 222.852 191.482 224.902 193.077C227.067 194.672 229.004 196.21 230.713 197.691H232.593H233.447C234.017 197.691 234.644 197.634 235.327 197.521C236.125 197.407 236.751 197.122 237.207 196.666H238.232C238.346 196.666 238.517 196.666 238.745 196.666C238.973 196.666 239.144 196.552 239.258 196.324C240.169 195.868 241.138 195.413 242.163 194.957C243.188 194.501 243.815 193.761 244.043 192.735C244.271 192.166 244.385 191.482 244.385 190.685C244.385 190.115 244.271 189.602 244.043 189.146C243.815 188.577 243.644 188.007 243.53 187.438C243.302 186.64 243.075 185.842 242.847 185.045C242.619 184.247 242.448 183.393 242.334 182.481C242.106 181.684 241.992 180.943 241.992 180.26C241.992 179.462 241.992 178.722 241.992 178.038C241.764 170.746 241.366 163.455 240.796 156.163C240.34 148.757 239.827 141.352 239.258 133.946C239.258 131.896 239.144 129.902 238.916 127.965C238.802 125.914 238.631 123.749 238.403 121.471C238.175 121.243 237.948 120.673 237.72 119.762C237.606 118.85 237.435 117.768 237.207 116.515C237.207 115.945 237.15 115.432 237.036 114.977C237.036 114.521 237.036 114.122 237.036 113.78C236.239 109.793 235.726 105.805 235.498 101.817C235.27 97.8298 235.099 93.7282 234.985 89.5127L233.96 76.1826C233.96 75.7269 233.846 74.5876 233.618 72.7646C233.39 70.9417 233.105 69.3467 232.764 67.9795C232.764 67.068 232.821 65.9287 232.935 64.5615C233.049 63.1943 233.105 61.8841 233.105 60.6309C233.105 60.1751 233.105 59.7194 233.105 59.2637C233.105 58.8079 232.992 58.4661 232.764 58.2383C232.764 57.6686 232.65 56.7572 232.422 55.5039C232.308 54.2507 232.251 53.1683 232.251 52.2568C231.795 51.915 231.567 51.3454 231.567 50.5479L228.662 47.6426C228.092 47.0729 227.466 46.4463 226.782 45.7627C226.213 45.0791 225.643 44.5094 225.073 44.0537C224.731 44.0537 224.333 43.9398 223.877 43.7119C223.421 43.484 222.909 43.3701 222.339 43.3701C221.883 43.2562 221.541 43.1992 221.313 43.1992C221.086 42.9714 220.744 42.5726 220.288 42.0029C219.832 41.4333 219.32 40.8636 218.75 40.2939C218.18 39.7243 217.668 39.2116 217.212 38.7559C216.756 38.1862 216.471 37.9014 216.357 37.9014C214.535 36.762 212.541 36.0785 210.376 35.8506C208.325 35.6227 206.16 35.5088 203.882 35.5088H200.293C198.812 35.5088 197.331 35.5088 195.85 35.5088C194.368 35.5088 193.001 35.3949 191.748 35.167L187.646 33.458C186.507 33.0023 185.824 32.7744 185.596 32.7744C185.026 32.4326 184.285 31.9769 183.374 31.4072C182.463 30.8376 181.551 30.2109 180.64 29.5273C179.842 28.7298 179.102 27.9323 178.418 27.1348C177.848 26.3372 177.563 25.6536 177.563 25.084C177.563 24.7422 177.677 24.2295 177.905 23.5459C178.247 22.8623 178.589 22.1787 178.931 21.4951C179.272 20.8115 179.614 20.2419 179.956 19.7861C180.412 19.2165 180.811 18.9316 181.152 18.9316H205.078C206.331 20.1849 207.756 20.9255 209.351 21.1533C211.06 21.3812 212.882 21.609 214.819 21.8369H216.357C216.813 21.8369 218.009 21.8939 219.946 22.0078C221.883 22.1217 223.934 22.2357 226.099 22.3496C228.377 22.4635 230.428 22.5775 232.251 22.6914C234.188 22.8053 235.384 22.9193 235.84 23.0332H280.957C282.894 23.4889 284.318 24.0016 285.229 24.5713C286.141 25.141 286.597 26.3942 286.597 28.3311C286.597 30.8376 286.084 32.8314 285.059 34.3125C284.147 35.6797 282.837 36.7051 281.128 37.3887C279.533 38.0723 277.653 38.528 275.488 38.7559C273.324 38.9837 271.045 39.1546 268.652 39.2686C266.602 39.4964 264.608 39.7243 262.671 39.9521C260.734 40.0661 258.911 40.3509 257.202 40.8066C255.493 41.2624 253.898 41.946 252.417 42.8574C251.05 43.7689 249.967 45.0221 249.17 46.6172C249.056 47.4147 248.942 48.611 248.828 50.2061C248.714 51.6872 248.6 53.3962 248.486 55.333C248.372 57.2699 248.258 59.3206 248.145 61.4854C248.031 63.6501 247.974 65.7008 247.974 67.6377V77.3789V81.3096C247.974 82.5628 248.031 83.8161 248.145 85.0693C248.258 86.3226 248.6 87.6328 249.17 89C249.398 89.9115 249.626 90.8799 249.854 91.9053C250.081 92.9307 250.195 94.127 250.195 95.4941V119.078L249.683 120.958C249.683 121.642 249.569 122.439 249.341 123.351C249.227 124.262 249.17 125.003 249.17 125.572C249.17 126.484 249.17 128.136 249.17 130.528C249.284 132.921 249.455 135.427 249.683 138.048C249.683 140.668 249.74 143.118 249.854 145.396C249.967 147.561 250.081 149.156 250.195 150.182C251.335 152.118 252.132 154.568 252.588 157.53C253.044 160.379 253.271 162.942 253.271 165.221V166.417C253.271 166.645 253.271 166.873 253.271 167.101C253.271 167.328 253.158 168.069 252.93 169.322C252.93 169.664 252.816 170.234 252.588 171.031C252.474 171.715 252.189 172.968 251.733 174.791C251.733 175.019 251.676 175.93 251.562 177.525C251.449 179.007 251.335 180.659 251.221 182.481C250.993 184.076 250.765 185.615 250.537 187.096C250.309 188.577 250.195 189.602 250.195 190.172C250.081 190.855 249.74 191.938 249.17 193.419C248.6 194.786 247.974 196.267 247.29 197.862C246.606 199.343 245.923 200.711 245.239 201.964C244.556 203.217 244.043 204.072 243.701 204.527V206.407C243.701 207.547 243.758 208.515 243.872 209.312C243.986 209.996 244.442 210.965 245.239 212.218C245.581 213.813 245.809 215.465 245.923 217.174C246.037 218.769 246.094 220.364 246.094 221.959C246.094 223.554 246.037 225.263 245.923 227.086C245.809 228.795 245.581 230.561 245.239 232.384C246.606 234.435 247.404 236.884 247.632 239.732C247.86 242.467 247.974 245.144 247.974 247.765C247.974 249.132 247.86 250.727 247.632 252.55C247.518 254.259 247.176 255.911 246.606 257.506C246.037 259.101 245.182 260.468 244.043 261.607C243.018 262.633 241.536 263.146 239.6 263.146C237.777 263.146 236.125 262.576 234.644 261.437C233.162 260.297 231.795 259.101 230.542 257.848L227.808 255.113C227.58 254.771 227.124 254.202 226.44 253.404C225.871 252.607 225.244 251.809 224.561 251.012C223.877 250.1 223.193 249.303 222.51 248.619C221.94 247.822 221.541 247.309 221.313 247.081C220.972 246.511 219.889 245.03 218.066 242.638C216.357 240.245 214.478 237.682 212.427 234.947C210.49 232.213 208.61 229.649 206.787 227.257C204.964 224.864 203.768 223.326 203.198 222.643C202.743 222.301 201.717 221.389 200.122 219.908C198.527 218.313 196.818 216.433 194.995 214.269C193.058 212.56 191.178 210.851 189.355 209.142C187.646 207.433 186.678 206.179 186.45 205.382C186.45 205.268 186.279 205.097 185.938 204.869C185.71 204.527 185.482 204.129 185.254 203.673C184.912 203.445 184.627 203.046 184.399 202.477C184.172 201.907 184.058 201.736 184.058 201.964C182.235 199.571 179.899 197.065 177.051 194.444C174.202 191.71 171.582 189.488 169.189 187.779C168.962 187.551 168.506 187.324 167.822 187.096C167.253 186.754 166.74 186.355 166.284 185.899C165.715 185.785 165.259 185.672 164.917 185.558C164.689 185.33 164.062 184.76 163.037 183.849C162.809 183.849 162.524 183.678 162.183 183.336C161.955 182.994 161.841 182.709 161.841 182.481C161.613 182.481 161.328 182.083 160.986 181.285C160.645 180.374 160.36 179.462 160.132 178.551L159.448 177.354C159.22 177.127 158.594 176.557 157.568 175.646C156.657 174.62 155.745 173.424 154.834 172.057C153.809 171.031 152.783 169.949 151.758 168.81C150.846 167.67 150.277 166.987 150.049 166.759C148.796 165.506 147.77 164.138 146.973 162.657C146.175 161.176 145.15 159.752 143.896 158.385C143.099 157.245 142.244 156.106 141.333 154.967C140.535 153.827 139.624 152.745 138.599 151.72L133.813 146.593C129.028 142.605 124.357 138.674 119.8 134.801C115.243 130.927 110.628 126.996 105.957 123.009C105.843 122.895 105.501 122.553 104.932 121.983C104.362 121.3 103.735 120.616 103.052 119.933C102.368 119.249 101.685 118.622 101.001 118.053C100.431 117.369 100.033 116.856 99.8047 116.515C96.1589 112.641 92.627 108.938 89.209 105.406C85.791 101.874 82.0312 98.4564 77.9297 95.1523C77.8158 94.9245 77.36 94.6966 76.5625 94.4688C76.2207 94.3548 75.8789 94.2979 75.5371 94.2979C75.0814 94.2979 74.5687 94.2979 73.999 94.2979C73.4294 94.2979 73.1445 94.4118 73.1445 94.6396C73.1445 94.7536 73.0306 94.8105 72.8027 94.8105C72.5749 94.8105 72.347 95.0954 72.1191 95.665C72.0052 96.2347 71.9482 96.6904 71.9482 97.0322V112.584C72.0622 112.926 72.1761 114.008 72.29 115.831C72.404 117.54 72.5179 119.42 72.6318 121.471C72.7458 123.521 72.8597 125.458 72.9736 127.281C73.0876 129.104 73.1445 130.243 73.1445 130.699V159.41L73.8281 163.854C73.8281 164.423 73.8281 164.936 73.8281 165.392C73.8281 165.847 73.8851 166.303 73.999 166.759C74.113 167.215 74.2269 167.67 74.3408 168.126V177.013L75.5371 179.063V190.172C75.5371 190.4 75.4801 191.14 75.3662 192.394C75.3662 193.533 75.5941 194.729 76.0498 195.982C76.3916 197.236 76.6764 198.546 76.9043 199.913C77.1322 201.28 77.2461 201.85 77.2461 201.622C77.5879 203.673 77.7588 205.724 77.7588 207.774C77.8727 209.711 77.9297 211.819 77.9297 214.098C77.9297 217.174 78.1576 220.307 78.6133 223.497C79.1829 226.687 79.9235 229.763 80.835 232.726C81.1768 233.181 81.8604 233.979 82.8857 235.118C83.9111 236.144 84.9365 237.283 85.9619 238.536C87.1012 239.675 88.1836 240.758 89.209 241.783C90.2344 242.809 90.918 243.492 91.2598 243.834C91.2598 243.948 91.7155 244.233 92.627 244.688C93.5384 245.144 94.5638 245.714 95.7031 246.397C96.9564 246.967 98.2096 247.537 99.4629 248.106C100.83 248.676 101.912 249.132 102.71 249.474C103.166 249.701 103.792 249.986 104.59 250.328C105.501 250.556 106.071 250.67 106.299 250.67C107.096 250.784 108.407 250.955 110.229 251.183C112.166 251.41 114.16 251.638 116.211 251.866C118.262 252.094 120.199 252.322 122.021 252.55C123.844 252.778 125.098 252.949 125.781 253.062C125.895 253.062 125.952 253.119 125.952 253.233C126.066 253.233 126.18 253.233 126.294 253.233C126.408 253.347 126.522 253.404 126.636 253.404C127.889 254.316 129.028 255.227 130.054 256.139C131.193 257.05 131.763 258.303 131.763 259.898C131.763 261.38 131.307 262.519 130.396 263.316C129.598 264 128.573 264.627 127.319 265.196C126.522 265.196 125.439 265.253 124.072 265.367C122.705 265.481 121.224 265.538 119.629 265.538H112.28C108.634 265.538 105.103 265.424 101.685 265.196C98.2666 264.968 94.8486 264.854 91.4307 264.854C87.8988 264.627 84.3669 264.399 80.835 264.171C77.417 264.057 73.7712 264 69.8975 264H53.3203C52.0671 264.228 50.1872 264.342 47.6807 264.342C45.2881 264.456 42.6676 264.627 39.8193 264.854C36.8571 264.854 34.0658 264.911 31.4453 265.025C28.9388 265.139 27.1729 265.196 26.1475 265.196C26.1475 265.424 25.5208 265.709 24.2676 266.051C23.1283 266.507 22.2738 266.734 21.7041 266.734C21.0205 266.734 20.166 266.45 19.1406 265.88C18.1152 265.31 17.0898 264.627 16.0645 263.829C15.153 262.918 14.3555 262.006 13.6719 261.095C13.1022 260.069 12.8174 259.158 12.8174 258.36Z" fill="black"/>
<path d="M355.918 109.337C355.918 110.818 356.032 112.641 356.26 114.806C356.488 116.97 356.829 119.135 357.285 121.3C357.855 123.351 358.595 125.287 359.507 127.11C360.418 128.933 361.501 130.3 362.754 131.212H369.248C373.35 131.212 376.882 130.984 379.844 130.528C382.92 130.073 386.395 129.047 390.269 127.452C393.914 125.743 397.446 124.034 400.864 122.325C404.396 120.616 407.586 118.679 410.435 116.515C413.397 114.236 415.903 111.559 417.954 108.482C420.005 105.406 421.486 101.646 422.397 97.2031C422.511 96.8613 422.625 96.2347 422.739 95.3232C422.967 94.2979 423.138 93.2155 423.252 92.0762C423.48 90.9368 423.651 89.8545 423.765 88.8291C423.993 87.6898 424.163 86.9492 424.277 86.6074C424.277 86.2656 424.334 85.5251 424.448 84.3857C424.676 83.2464 424.904 82.0501 425.132 80.7969C425.474 79.5436 425.758 78.3473 425.986 77.208C426.214 76.0687 426.385 75.3851 426.499 75.1572V73.6191V67.4668C426.499 65.6439 426.385 63.821 426.157 61.998C425.929 60.1751 425.303 58.5231 424.277 57.042C423.708 56.2445 422.967 55.2191 422.056 53.9658C421.258 52.5986 420.404 51.2884 419.492 50.0352C418.695 48.7819 417.954 47.6995 417.271 46.7881C416.587 45.8766 416.131 45.3639 415.903 45.25C413.283 41.6042 410.15 38.7559 406.504 36.7051C402.858 34.6543 399.098 32.6605 395.225 30.7236C394.997 30.4958 394.37 30.2679 393.345 30.04C392.319 29.6982 391.579 29.4134 391.123 29.1855C387.705 28.502 384.572 28.0462 381.724 27.8184C378.989 27.4766 375.685 27.1917 371.812 26.9639H371.299C368.223 26.9639 365.716 27.5335 363.779 28.6729C361.956 29.6982 360.589 31.1224 359.678 32.9453C358.766 34.6543 358.14 36.7051 357.798 39.0977C357.57 41.3763 357.456 43.7119 357.456 46.1045C357.456 47.4717 357.456 48.8389 357.456 50.2061C357.57 51.5732 357.627 52.8835 357.627 54.1367C357.627 54.7064 357.57 55.4469 357.456 56.3584C357.456 57.2699 357.456 58.0104 357.456 58.5801C357.456 58.8079 357.399 59.2067 357.285 59.7764C357.171 60.346 357 60.9727 356.772 61.6562C356.659 62.2259 356.545 62.7956 356.431 63.3652C356.317 63.9349 356.26 64.2767 356.26 64.3906C356.146 64.6185 356.032 65.2451 355.918 66.2705C355.918 67.182 355.918 68.3213 355.918 69.6885C355.918 70.9417 355.918 72.252 355.918 73.6191C355.918 74.9863 355.918 76.0687 355.918 76.8662C355.918 77.6637 355.918 78.7461 355.918 80.1133C355.918 81.4805 355.918 82.8477 355.918 84.2148C355.918 85.582 355.918 86.7783 355.918 87.8037C356.032 88.7152 356.146 89.2279 356.26 89.3418C356.26 89.4557 356.26 89.7975 356.26 90.3672C356.374 90.8229 356.545 91.3356 356.772 91.9053L357.456 94.2979V95.1523C357.456 97.5449 357.171 99.9375 356.602 102.33C356.146 104.723 355.918 107.058 355.918 109.337ZM357.456 240.416C357.456 240.872 357.627 241.441 357.969 242.125C358.311 242.809 358.595 243.321 358.823 243.663C362.241 247.765 366.115 250.271 370.444 251.183C374.888 252.094 379.787 252.55 385.142 252.55C388.56 252.55 391.636 252.379 394.37 252.037C397.218 251.581 399.896 250.898 402.402 249.986C405.023 249.075 407.586 247.993 410.093 246.739C412.713 245.372 415.562 243.72 418.638 241.783C418.752 241.783 419.093 241.669 419.663 241.441C420.233 241.214 420.859 240.986 421.543 240.758C422.227 240.416 422.796 240.131 423.252 239.903C423.822 239.675 424.163 239.505 424.277 239.391C424.505 239.049 424.904 238.593 425.474 238.023C426.157 237.454 426.841 236.827 427.524 236.144C428.208 235.46 428.835 234.833 429.404 234.264C430.088 233.58 430.544 233.124 430.771 232.896C433.506 228.795 435.443 224.124 436.582 218.883C437.835 213.528 438.804 208.572 439.487 204.015C439.487 203.673 439.373 202.989 439.146 201.964C439.032 200.825 438.861 199.685 438.633 198.546C438.519 197.293 438.405 196.21 438.291 195.299C438.177 194.387 438.12 193.818 438.12 193.59V187.096V184.19C437.778 182.026 437.266 179.861 436.582 177.696C435.898 175.418 435.044 173.253 434.019 171.202C432.993 169.151 431.74 167.271 430.259 165.562C428.778 163.854 427.069 162.372 425.132 161.119C424.106 160.663 422.91 160.037 421.543 159.239C420.176 158.328 418.809 157.416 417.441 156.505C416.074 155.479 414.764 154.454 413.511 153.429C412.257 152.403 411.289 151.492 410.605 150.694C408.555 149.897 406.219 149.042 403.599 148.131C400.978 147.219 398.244 146.365 395.396 145.567C392.547 144.656 389.699 143.858 386.851 143.175C384.116 142.491 381.667 141.865 379.502 141.295H376.597C372.609 141.295 369.419 141.58 367.026 142.149C364.634 142.719 362.754 143.801 361.387 145.396C360.133 146.878 359.222 148.928 358.652 151.549C358.083 154.055 357.684 157.245 357.456 161.119C357.342 162.031 357.228 163.683 357.114 166.075C357 168.468 356.886 170.974 356.772 173.595C356.659 176.215 356.545 178.722 356.431 181.114C356.317 183.393 356.26 184.931 356.26 185.729C356.26 185.729 356.203 186.127 356.089 186.925C356.089 187.722 356.089 188.634 356.089 189.659C356.089 190.571 356.032 191.482 355.918 192.394C355.918 193.305 355.918 193.989 355.918 194.444C355.918 195.128 355.918 195.982 355.918 197.008C356.032 198.033 356.089 199.059 356.089 200.084C356.089 200.995 356.089 201.85 356.089 202.647C356.203 203.445 356.26 203.901 356.26 204.015C356.26 205.382 356.317 207.774 356.431 211.192C356.545 214.61 356.659 218.256 356.772 222.13C356.886 226.004 357 229.706 357.114 233.238C357.228 236.656 357.342 239.049 357.456 240.416ZM280.21 259.898V258.019C280.21 256.651 280.552 255.341 281.235 254.088C282.033 252.721 283.001 251.524 284.141 250.499C285.394 249.474 286.704 248.676 288.071 248.106C289.438 247.423 290.749 247.081 292.002 247.081C293.939 246.967 295.819 246.853 297.642 246.739C299.578 246.625 301.458 246.568 303.281 246.568C305.674 246.568 307.952 246.625 310.117 246.739C312.396 246.853 314.561 246.967 316.611 247.081C318.662 247.309 319.915 246.796 320.371 245.543C320.941 244.29 321.226 242.752 321.226 240.929C321.226 240.359 321.169 239.618 321.055 238.707C321.055 237.682 321.055 237.055 321.055 236.827C321.055 234.207 320.77 231.586 320.2 228.966C319.744 226.231 319.517 223.44 319.517 220.592V219.737C319.744 219.509 320.029 218.655 320.371 217.174C320.827 215.693 321.055 214.838 321.055 214.61V214.098V213.072C321.055 212.844 320.941 212.104 320.713 210.851C320.599 209.597 320.428 208.287 320.2 206.92C320.086 205.439 319.915 204.015 319.688 202.647C319.574 201.28 319.517 200.426 319.517 200.084V172.569C318.947 171.316 318.605 170.006 318.491 168.639C318.377 167.158 318.32 165.733 318.32 164.366C318.32 163.797 318.377 162.885 318.491 161.632C318.605 160.379 318.662 159.638 318.662 159.41C318.89 158.499 319.118 157.302 319.346 155.821C319.688 154.226 319.858 152.859 319.858 151.72C319.858 150.125 319.801 148.587 319.688 147.105C319.574 145.51 319.517 144.485 319.517 144.029C319.631 143.801 319.744 143.118 319.858 141.979C320.086 140.725 320.257 139.472 320.371 138.219C320.599 136.852 320.77 135.598 320.884 134.459C320.998 133.32 321.055 132.636 321.055 132.408V131.212C320.827 130.87 320.656 130.414 320.542 129.845C320.428 129.161 320.314 128.478 320.2 127.794C320.086 127.11 319.972 126.484 319.858 125.914C319.744 125.344 319.631 124.946 319.517 124.718C319.517 123.351 319.517 121.471 319.517 119.078C319.631 116.686 319.688 113.951 319.688 110.875C319.688 107.685 319.688 104.324 319.688 100.792C319.801 97.1462 319.858 93.5003 319.858 89.8545C319.858 86.2087 319.801 82.6198 319.688 79.0879C319.688 75.556 319.688 72.252 319.688 69.1758C319.688 66.0996 319.631 63.3652 319.517 60.9727C319.517 58.5801 319.517 56.7572 319.517 55.5039C319.517 55.0482 319.46 54.1367 319.346 52.7695C319.232 51.4023 319.118 49.9782 319.004 48.4971C319.004 46.902 318.947 45.4209 318.833 44.0537C318.719 42.6865 318.662 41.7751 318.662 41.3193C318.434 39.8382 317.466 38.3571 315.757 36.876C314.048 35.3949 312.453 34.6543 310.972 34.6543C307.554 34.6543 304.079 34.8252 300.547 35.167C297.129 35.5088 293.597 35.6797 289.951 35.6797C287.9 35.6797 286.077 35.6797 284.482 35.6797C282.887 35.5658 281.406 35.2809 280.039 34.8252C278.786 34.3695 277.646 33.6289 276.621 32.6035C275.71 31.5781 274.855 30.04 274.058 27.9893V27.4766C274.058 26.3372 274.342 25.3118 274.912 24.4004C275.596 23.4889 276.393 22.7484 277.305 22.1787C278.216 21.4951 279.185 21.0394 280.21 20.8115C281.235 20.4697 282.204 20.2988 283.115 20.2988C283.571 20.2988 284.71 20.2419 286.533 20.1279C288.356 20.014 290.35 19.9001 292.515 19.7861C294.679 19.6722 296.787 19.5583 298.838 19.4443C301.003 19.3304 302.655 19.2734 303.794 19.2734H307.725C309.548 19.2734 311.313 19.5013 313.022 19.957C314.731 20.4128 316.611 20.5267 318.662 20.2988C326.068 19.6152 333.473 18.9886 340.879 18.4189C348.398 17.7354 356.089 17.3936 363.95 17.3936C368.052 17.3936 372.096 17.7354 376.084 18.4189C380.072 18.9886 384.059 19.2734 388.047 19.2734C388.617 19.2734 389.642 18.9886 391.123 18.4189C392.604 17.7354 393.573 17.3936 394.028 17.3936C394.256 17.3936 394.769 17.5075 395.566 17.7354C396.478 17.8493 397.446 18.0771 398.472 18.4189C399.497 18.6468 400.409 18.8747 401.206 19.1025C402.118 19.2165 402.687 19.2734 402.915 19.2734C403.371 19.2734 404.681 19.2165 406.846 19.1025C409.01 18.9886 411.175 18.9316 413.34 18.9316C414.251 18.9316 415.049 18.9886 415.732 19.1025C416.53 19.2165 417.1 19.2734 417.441 19.2734C419.606 19.3874 421.429 19.7292 422.91 20.2988C424.391 20.7546 425.815 21.3242 427.183 22.0078C428.664 22.6914 430.145 23.4889 431.626 24.4004C433.221 25.1979 435.101 26.0524 437.266 26.9639C437.38 27.0778 437.664 27.1917 438.12 27.3057C438.576 27.4196 439.032 27.5905 439.487 27.8184C440.057 28.388 440.684 28.7868 441.367 29.0146C442.165 29.2425 442.848 29.6413 443.418 30.2109C446.95 33.515 450.083 37.0469 452.817 40.8066C455.666 44.5664 457.773 48.8958 459.141 53.7949C459.141 54.0228 459.198 54.5355 459.312 55.333C459.425 56.1305 459.539 57.042 459.653 58.0674C459.881 58.9788 460.052 59.8333 460.166 60.6309C460.28 61.4284 460.337 61.998 460.337 62.3398C460.565 62.4538 460.793 62.9095 461.021 63.707C461.362 64.3906 461.647 65.1882 461.875 66.0996C462.217 66.8971 462.445 67.6947 462.559 68.4922C462.786 69.1758 462.9 69.5745 462.9 69.6885C462.9 69.9163 462.957 70.543 463.071 71.5684C463.185 72.5938 463.242 73.3913 463.242 73.9609C463.242 76.1257 463.014 78.974 462.559 82.5059C462.103 85.9238 461.419 89.5127 460.508 93.2725C459.71 96.9183 458.742 100.45 457.603 103.868C456.463 107.172 455.21 109.679 453.843 111.388C452.931 112.755 451.849 113.951 450.596 114.977C449.456 116.002 448.146 116.97 446.665 117.882C445.298 118.679 443.874 119.477 442.393 120.274C440.911 121.072 439.487 121.983 438.12 123.009C438.12 123.237 437.778 123.806 437.095 124.718C436.411 125.515 435.841 125.914 435.386 125.914C434.702 126.37 433.734 126.826 432.48 127.281C431.341 127.737 430.202 128.307 429.062 128.99C428.037 129.56 427.126 130.3 426.328 131.212C425.531 132.009 425.132 133.092 425.132 134.459V136.339C425.36 136.567 425.815 136.965 426.499 137.535C427.183 137.991 427.923 138.504 428.721 139.073C429.632 139.529 430.487 139.985 431.284 140.44C432.082 140.896 432.651 141.181 432.993 141.295C433.335 141.523 434.019 141.922 435.044 142.491C436.069 142.947 437.152 143.46 438.291 144.029C439.544 144.599 440.684 145.169 441.709 145.738C442.734 146.308 443.304 146.707 443.418 146.935C454.242 153.201 462.16 160.549 467.173 168.98C472.186 177.298 474.692 187.665 474.692 200.084C474.692 204.072 474.294 207.49 473.496 210.338C472.699 213.072 471.958 216.205 471.274 219.737C471.047 219.851 470.933 220.478 470.933 221.617C470.933 222.757 470.933 223.497 470.933 223.839C470.477 225.776 469.907 227.883 469.224 230.162C468.654 232.327 467.913 234.492 467.002 236.656C466.09 238.821 464.951 240.815 463.584 242.638C462.331 244.461 460.85 245.942 459.141 247.081C458.799 247.195 457.887 247.708 456.406 248.619C455.039 249.417 453.444 250.385 451.621 251.524C449.912 252.664 448.146 253.86 446.323 255.113C444.614 256.253 443.247 257.164 442.222 257.848C441.766 257.848 441.196 258.019 440.513 258.36C439.829 258.588 439.487 258.816 439.487 259.044C439.373 259.044 438.918 259.101 438.12 259.215C437.437 259.329 436.639 259.443 435.728 259.557C434.816 259.557 433.962 259.614 433.164 259.728C432.367 259.841 431.854 259.898 431.626 259.898C431.398 260.012 430.942 260.24 430.259 260.582C429.575 260.924 428.778 261.266 427.866 261.607C427.069 261.949 426.271 262.234 425.474 262.462C424.79 262.69 424.391 262.804 424.277 262.804C423.936 262.804 423.309 262.861 422.397 262.975C421.486 263.089 420.404 263.146 419.15 263.146C417.897 263.146 416.587 263.146 415.22 263.146C413.966 263.032 412.713 262.975 411.46 262.975C410.321 262.975 409.295 262.975 408.384 262.975C407.586 262.861 407.017 262.804 406.675 262.804C406.219 262.918 405.023 263.089 403.086 263.316C401.263 263.544 399.269 263.772 397.104 264C394.94 264.342 392.889 264.627 390.952 264.854C389.129 265.082 387.99 265.196 387.534 265.196C387.306 265.424 386.509 265.538 385.142 265.538C383.888 265.538 382.806 265.538 381.895 265.538C379.274 265.538 377.109 265.253 375.4 264.684C373.805 264.228 371.755 264 369.248 264H331.65C331.081 264 330.169 264.057 328.916 264.171C327.663 264.285 326.353 264.399 324.985 264.513C323.618 264.627 322.308 264.741 321.055 264.854C319.915 264.968 319.118 265.082 318.662 265.196C318.434 265.424 317.694 265.709 316.44 266.051C315.301 266.507 314.674 266.734 314.561 266.734C314.219 266.734 313.478 266.507 312.339 266.051C311.2 265.709 310.516 265.424 310.288 265.196C307.782 264.854 305.218 264.684 302.598 264.684C300.091 264.798 297.528 264.741 294.907 264.513C292.401 264.399 289.894 264 287.388 263.316C284.995 262.633 282.603 261.493 280.21 259.898Z" fill="black"/>
</svg>
