<svg width="490" height="93" viewBox="0 0 490 93" fill="none" xmlns="http://www.w3.org/2000/svg">
<path d="M0.1875 87.4375V86.0625C0.1875 86.0208 0.229167 85.8542 0.3125 85.5625C0.395833 85.2708 0.5 84.9792 0.625 84.6875C0.75 84.3542 0.854167 84.0625 0.9375 83.8125C1.02083 83.5208 1.0625 83.3333 1.0625 83.25C1.10417 83.0833 1.14583 82.6875 1.1875 82.0625C1.27083 81.3958 1.35417 80.6875 1.4375 79.9375C1.52083 79.1875 1.58333 78.4583 1.625 77.75C1.70833 77 1.75 76.4583 1.75 76.125V64.625C1.75 64.375 1.77083 64.0417 1.8125 63.625C1.89583 63.2083 2 62.8125 2.125 62.4375C2.29167 62.0208 2.47917 61.6667 2.6875 61.375C2.9375 61.0417 3.22917 60.875 3.5625 60.875C4.3125 60.875 4.875 61.0625 5.25 61.4375C5.66667 61.8125 5.97917 62.2708 6.1875 62.8125C6.4375 63.3125 6.60417 63.875 6.6875 64.5C6.77083 65.125 6.85417 65.6875 6.9375 66.1875C7.5625 69.3125 8.6875 72.25 10.3125 75C11.9792 77.75 14.0625 80.25 16.5625 82.5C16.7708 82.6667 17.0417 82.8958 17.375 83.1875C17.75 83.4792 18.1042 83.7708 18.4375 84.0625C18.8542 84.4375 19.2708 84.8125 19.6875 85.1875C19.8958 85.3125 20.2708 85.4792 20.8125 85.6875C21.3542 85.8542 21.9375 86.0417 22.5625 86.25C23.1875 86.4583 23.7708 86.6458 24.3125 86.8125C24.8542 86.9792 25.25 87.0833 25.5 87.125C25.625 87.125 25.9375 87.1458 26.4375 87.1875C26.9792 87.1875 27.5417 87.2083 28.125 87.25C28.7083 87.25 29.25 87.2708 29.75 87.3125C30.25 87.3125 30.5625 87.3333 30.6875 87.375C30.7708 87.375 31.0208 87.4167 31.4375 87.5C31.8958 87.5417 32.1458 87.5625 32.1875 87.5625H33C33.5417 87.5625 34.0417 87.4583 34.5 87.25C35 87 35.5417 86.8125 36.125 86.6875C36.7083 86.5208 37.2708 86.4167 37.8125 86.375C38.3542 86.2917 38.875 86.0833 39.375 85.75C40.0833 85.25 40.7708 84.7917 41.4375 84.375C42.1458 83.9167 42.7917 83.4375 43.375 82.9375C43.9583 82.4375 44.4792 81.875 44.9375 81.25C45.4375 80.5833 45.8542 79.8125 46.1875 78.9375C46.1875 78.8958 46.2083 78.7292 46.25 78.4375C46.2917 78.1458 46.3125 77.8542 46.3125 77.5625C46.3542 77.2292 46.3958 76.9375 46.4375 76.6875C46.4792 76.3958 46.5 76.2083 46.5 76.125C46.5417 76.0417 46.625 75.8542 46.75 75.5625C46.9167 75.2708 47.0833 74.9792 47.25 74.6875C47.4583 74.3542 47.625 74.0625 47.75 73.8125C47.9167 73.5208 48 73.3542 48 73.3125C48 73.2292 48.0208 72.8958 48.0625 72.3125C48.1042 71.7292 48.125 71.2708 48.125 70.9375C48.125 69.4792 47.8958 68.0833 47.4375 66.75C46.9792 65.4167 46.3542 64.1875 45.5625 63.0625C44.8125 61.8958 43.8958 60.8542 42.8125 59.9375C41.7708 58.9792 40.625 58.1667 39.375 57.5C39.2917 57.4167 38.9792 57.3542 38.4375 57.3125C37.8958 57.2292 37.5833 57.1458 37.5 57.0625C37.375 57.0208 37.0625 56.8958 36.5625 56.6875C36.1042 56.4375 35.6042 56.1875 35.0625 55.9375C34.5208 55.6458 34 55.3958 33.5 55.1875C33.0417 54.9375 32.75 54.7708 32.625 54.6875C32.625 54.6458 32.4792 54.5833 32.1875 54.5C31.9375 54.4167 31.6458 54.3333 31.3125 54.25C30.9792 54.125 30.6458 54.0208 30.3125 53.9375C30.0208 53.8125 29.8542 53.75 29.8125 53.75C29.7708 53.7083 29.6042 53.625 29.3125 53.5C29.0625 53.3333 28.7708 53.1875 28.4375 53.0625C28.1458 52.9375 27.8542 52.8333 27.5625 52.75C27.3125 52.625 27.125 52.5625 27 52.5625C26.6667 52.4792 26.2708 52.4167 25.8125 52.375C25.3958 52.3333 25.1458 52.3125 25.0625 52.3125C22.7292 51.7708 20.25 51 17.625 50C15.0417 48.9583 12.7708 47.8125 10.8125 46.5625C10.7292 46.5208 10.5833 46.3958 10.375 46.1875C10.2083 45.9792 10.0208 45.7708 9.8125 45.5625C9.60417 45.3125 9.39583 45.0833 9.1875 44.875C9.02083 44.6667 8.91667 44.5625 8.875 44.5625C8.79167 44.5625 8.60417 44.5 8.3125 44.375C8.02083 44.25 7.875 44.1667 7.875 44.125C7.79167 44.125 7.70833 44.0625 7.625 43.9375C7.54167 43.7708 7.45833 43.6875 7.375 43.6875C7.33333 43.6042 7.20833 43.3958 7 43.0625C6.83333 42.7292 6.64583 42.375 6.4375 42C6.22917 41.625 6.02083 41.2708 5.8125 40.9375C5.64583 40.6042 5.54167 40.3958 5.5 40.3125C4.83333 39.2292 4.125 38.1458 3.375 37.0625C2.625 35.9792 2.08333 34.8333 1.75 33.625C1.41667 32.2917 1.14583 30.8958 0.9375 29.4375C0.729167 27.9792 0.625 26.6042 0.625 25.3125C0.625 24.3542 0.645833 23.3333 0.6875 22.25C0.729167 21.1667 0.854167 20.1875 1.0625 19.3125C1.14583 19.2292 1.35417 19 1.6875 18.625C2.02083 18.2083 2.1875 17.9375 2.1875 17.8125C2.27083 17.6875 2.375 17.5208 2.5 17.3125C2.625 17.0625 2.75 16.8125 2.875 16.5625C3.04167 16.3125 3.1875 16.1042 3.3125 15.9375C3.4375 15.7292 3.52083 15.6042 3.5625 15.5625C5.1875 12.6875 7.1875 10.1875 9.5625 8.0625C11.9375 5.9375 14.7292 4.39583 17.9375 3.4375C18.0208 3.4375 18.25 3.39583 18.625 3.3125C19 3.1875 19.25 3.125 19.375 3.125C19.5417 3.04167 19.8542 2.9375 20.3125 2.8125C20.8125 2.64583 21.1042 2.5625 21.1875 2.5625C21.2292 2.5625 21.4375 2.5625 21.8125 2.5625C22.1875 2.52083 22.6042 2.5 23.0625 2.5C23.5625 2.45833 24.0625 2.4375 24.5625 2.4375C25.0625 2.39583 25.4583 2.375 25.75 2.375C25.9167 2.375 26.1875 2.39583 26.5625 2.4375C26.9375 2.47917 27.3333 2.52083 27.75 2.5625C28.2083 2.5625 28.625 2.58333 29 2.625C29.4167 2.66667 29.7292 2.6875 29.9375 2.6875C30.2292 2.77083 30.5625 2.875 30.9375 3C31.3542 3.08333 31.6042 3.125 31.6875 3.125C32.3958 3.16667 33 3.20833 33.5 3.25C34.0417 3.25 34.5833 3.3125 35.125 3.4375C35.6667 3.52083 36.25 3.6875 36.875 3.9375C37.5417 4.14583 38.375 4.47917 39.375 4.9375C40.4167 5.4375 41.375 5.91667 42.25 6.375C43.1667 6.83333 43.7917 7.14583 44.125 7.3125C44.2083 7.39583 44.4583 7.58333 44.875 7.875C45.2917 8.125 45.5 8.3125 45.5 8.4375H46.375C46.8333 8.4375 47.2292 8.33333 47.5625 8.125C47.8958 7.91667 48.1875 7.66667 48.4375 7.375C48.7292 7.08333 49 6.77083 49.25 6.4375C49.5 6.0625 49.7708 5.75 50.0625 5.5C50.1458 5.375 50.3125 5.14583 50.5625 4.8125C50.8542 4.47917 51.1667 4.125 51.5 3.75C51.875 3.375 52.2083 3.04167 52.5 2.75C52.8333 2.41667 53.0625 2.1875 53.1875 2.0625H53.75C54.2083 2.0625 54.5417 2.27083 54.75 2.6875C54.9583 3.10417 55.0833 3.54167 55.125 4C55.125 4.04167 55.1458 4.27083 55.1875 4.6875C55.2292 5.0625 55.2708 5.5 55.3125 6C55.3542 6.5 55.3958 7.02083 55.4375 7.5625C55.4792 8.0625 55.5208 8.45833 55.5625 8.75V9.1875V9.3125C55.4375 10.1875 55.3125 11.4167 55.1875 13C55.0625 14.5833 54.9167 16.1667 54.75 17.75C54.625 19.3333 54.5 20.75 54.375 22C54.2917 23.2083 54.2292 23.9167 54.1875 24.125C54.0625 25.2083 53.75 26.2083 53.25 27.125C52.7917 28 51.9375 28.4375 50.6875 28.4375C50.4375 28.4375 50.0417 28.4167 49.5 28.375C49 28.3333 48.6458 28.1667 48.4375 27.875C47.9375 27.25 47.5208 26.5833 47.1875 25.875C46.8958 25.1667 46.6042 24.4792 46.3125 23.8125C46.0208 23.1042 45.7083 22.3958 45.375 21.6875C45.0417 20.9792 44.625 20.3125 44.125 19.6875C43.5417 18.9792 42.9375 18.2292 42.3125 17.4375C41.7292 16.6458 41.1042 15.875 40.4375 15.125C39.7708 14.3333 39.0833 13.5833 38.375 12.875C37.6667 12.1667 36.9167 11.5417 36.125 11C36.0417 11 35.8958 10.9792 35.6875 10.9375C35.5208 10.8542 35.3333 10.7708 35.125 10.6875C34.9167 10.6042 34.7083 10.5208 34.5 10.4375C34.3333 10.3542 34.2292 10.2917 34.1875 10.25C34.1042 10.2083 33.9583 10.1042 33.75 9.9375C33.5417 9.72917 33.2917 9.52083 33 9.3125C32.75 9.0625 32.5 8.85417 32.25 8.6875C32 8.52083 31.8125 8.4375 31.6875 8.4375C31.6875 8.39583 31.5833 8.35417 31.375 8.3125C31.1667 8.22917 30.9167 8.16667 30.625 8.125C30.3333 8.08333 30.0208 8.04167 29.6875 8C29.3958 7.95833 29.1667 7.91667 29 7.875C28.7917 7.83333 28.4583 7.79167 28 7.75C27.5833 7.70833 27.1458 7.66667 26.6875 7.625C26.2292 7.54167 25.7917 7.47917 25.375 7.4375C25 7.39583 24.7292 7.35417 24.5625 7.3125H23.875C21.4167 7.3125 19.3542 7.8125 17.6875 8.8125C16.0625 9.77083 14.6042 11.1875 13.3125 13.0625C12.7708 13.8125 12.2917 14.4375 11.875 14.9375C11.4583 15.3958 11.1042 15.8542 10.8125 16.3125C10.5625 16.7292 10.375 17.2292 10.25 17.8125C10.125 18.3542 10.0625 19.0833 10.0625 20C10.0625 20.2083 10.0625 20.4375 10.0625 20.6875C10.0625 20.8958 10.0833 21.1042 10.125 21.3125C10.1667 21.5625 10.2083 21.8125 10.25 22.0625C10.2917 22.2708 10.4375 22.6458 10.6875 23.1875C10.9375 23.7292 11.2292 24.3125 11.5625 24.9375C11.8958 25.5208 12.2083 26.1042 12.5 26.6875C12.8333 27.2292 13.1042 27.625 13.3125 27.875C13.3125 27.9583 13.4167 28.125 13.625 28.375C13.875 28.625 14.1458 28.9167 14.4375 29.25C14.7292 29.5417 15 29.8333 15.25 30.125C15.5417 30.375 15.75 30.5625 15.875 30.6875C17.5417 32.1875 19.3542 33.4167 21.3125 34.375C23.3125 35.2917 25.3333 36.0833 27.375 36.75C29.4583 37.375 31.5417 37.9583 33.625 38.5C35.75 39 37.8125 39.6042 39.8125 40.3125C40.1458 40.8542 40.6042 41.1667 41.1875 41.25C41.7708 41.2917 42.3542 41.4583 42.9375 41.75C43.2708 42 43.7083 42.2708 44.25 42.5625C44.7917 42.8542 45.3333 43.1667 45.875 43.5C46.4583 43.8333 47.0208 44.1875 47.5625 44.5625C48.1458 44.8958 48.625 45.25 49 45.625C49.125 45.7083 49.2917 45.8542 49.5 46.0625C49.7083 46.2708 49.9375 46.5 50.1875 46.75C50.4375 46.9583 50.6667 47.1667 50.875 47.375C51.0833 47.5833 51.25 47.75 51.375 47.875C51.375 48 51.5208 48.25 51.8125 48.625C52.1042 49 52.2708 49.2292 52.3125 49.3125C53.2708 50.3958 54.25 51.4583 55.25 52.5C56.2917 53.5 57.0833 54.7083 57.625 56.125C57.7083 56.4583 57.8125 56.8542 57.9375 57.3125C58.1042 57.7708 58.2708 58.2292 58.4375 58.6875C58.6042 59.1875 58.8125 59.7292 59.0625 60.3125C59.2292 61.1875 59.3333 62.0417 59.375 62.875C59.4167 63.6667 59.4375 64.4792 59.4375 65.3125C59.4375 66.3958 59.3958 67.4792 59.3125 68.5625C59.2292 69.6042 59.1458 70.6667 59.0625 71.75C58.6875 72.6667 58.3333 73.5208 58 74.3125C57.6667 75.1042 57.3333 75.875 57 76.625C56.6667 77.375 56.3125 78.1458 55.9375 78.9375C55.5625 79.6875 55.1458 80.4792 54.6875 81.3125C54.6042 81.3542 54.4375 81.4583 54.1875 81.625C53.9792 81.75 53.8333 81.8542 53.75 81.9375C53.0833 82.5208 52.5 83.0625 52 83.5625C51.5 84.0625 51 84.5625 50.5 85.0625C50.0417 85.5625 49.5208 86.0625 48.9375 86.5625C48.3958 87.0625 47.7292 87.5833 46.9375 88.125C45.6042 89.0417 44.125 89.8125 42.5 90.4375C40.875 91.0208 39.2083 91.5417 37.5 92C36.6667 92.1667 36 92.25 35.5 92.25C35.0417 92.25 34.4583 92.4167 33.75 92.75C33.5417 92.75 33.1875 92.75 32.6875 92.75C32.2292 92.7917 31.75 92.8125 31.25 92.8125C30.75 92.8125 30.2917 92.8125 29.875 92.8125C29.4583 92.8542 29.1667 92.875 29 92.875C27 92.875 25.0208 92.8333 23.0625 92.75C21.1458 92.7083 19.25 92.4583 17.375 92C16.5833 91.7083 15.7292 91.4583 14.8125 91.25C13.9375 91 13.0417 90.7083 12.125 90.375C12 90.3333 11.875 90.2708 11.75 90.1875C11.5 90.1042 11.3333 90.0208 11.25 89.9375C11.2083 89.9375 11.0833 89.9167 10.875 89.875C10.6667 89.8333 10.4375 89.8125 10.1875 89.8125C9.9375 89.7708 9.6875 89.7292 9.4375 89.6875C9.1875 89.6458 9 89.625 8.875 89.625H8.625H8.1875C8.02083 89.7083 7.6875 89.875 7.1875 90.125C6.6875 90.375 6.125 90.6667 5.5 91C4.91667 91.2917 4.33333 91.5625 3.75 91.8125C3.20833 92.0625 2.8125 92.2292 2.5625 92.3125C2.39583 92.4375 2.125 92.5417 1.75 92.625C1.375 92.7083 1.14583 92.75 1.0625 92.75C0.895833 92.75 0.75 92.5208 0.625 92.0625C0.541667 91.6042 0.458333 91.0833 0.375 90.5C0.333333 89.875 0.291667 89.2708 0.25 88.6875C0.208333 88.1042 0.1875 87.6875 0.1875 87.4375ZM80.5 67.4375C80.5 69.8125 80.9792 72.1042 81.9375 74.3125C82.9375 76.4792 84.2292 78.4167 85.8125 80.125C86.3125 80.625 86.8125 81.1875 87.3125 81.8125C87.8125 82.4375 88.3333 83.0417 88.875 83.625C89.4583 84.2083 90.0625 84.75 90.6875 85.25C91.3542 85.75 92.0625 86.125 92.8125 86.375L96.75 87.25H97.25H97.8125C98.1875 87.2083 98.7083 87.1667 99.375 87.125C100.042 87.0833 100.708 87.0417 101.375 87C102.042 86.9583 102.625 86.9167 103.125 86.875C103.625 86.8333 103.917 86.8125 104 86.8125C104.625 86.6875 105.312 86.375 106.062 85.875C106.854 85.375 107.646 84.8125 108.438 84.1875C109.229 83.5208 109.979 82.8542 110.688 82.1875C111.438 81.4792 112.083 80.8958 112.625 80.4375C112.667 80.4375 112.729 80.3958 112.812 80.3125C112.854 80.2708 112.896 80.2083 112.938 80.125C113.979 77.9583 114.812 75.6875 115.438 73.3125C116.104 70.8958 116.438 68.5417 116.438 66.25C116.438 64.375 116.271 62.625 115.938 61C115.646 59.375 115.146 57.75 114.438 56.125C114.438 56 114.354 55.75 114.188 55.375C114.062 55 114 54.7708 114 54.6875C113.75 53.6042 113.479 52.4375 113.188 51.1875C112.938 49.8958 112.396 48.8333 111.562 48C111.479 47.875 111.25 47.625 110.875 47.25C110.5 46.875 110.083 46.4792 109.625 46.0625C109.208 45.6458 108.812 45.25 108.438 44.875C108.104 44.5 107.917 44.25 107.875 44.125C107.792 44.0833 107.667 43.9792 107.5 43.8125C107.375 43.6042 107.229 43.3958 107.062 43.1875C106.896 42.9792 106.729 42.7917 106.562 42.625C106.438 42.4167 106.375 42.2917 106.375 42.25C106.25 42.1667 106.062 42 105.812 41.75C105.604 41.4583 105.458 41.2708 105.375 41.1875C105.292 41.1875 105.146 41.1458 104.938 41.0625C104.729 40.9375 104.5 40.8125 104.25 40.6875C104 40.5625 103.771 40.4583 103.562 40.375C103.354 40.25 103.229 40.1875 103.188 40.1875C103.062 40.1042 102.729 40 102.188 39.875C101.646 39.75 101.062 39.625 100.438 39.5C99.8542 39.375 99.2917 39.2708 98.75 39.1875C98.25 39.0625 97.9375 38.9792 97.8125 38.9375C97.6042 38.9375 97.2708 38.9792 96.8125 39.0625C96.3542 39.1042 95.875 39.1875 95.375 39.3125C94.875 39.3958 94.3958 39.4792 93.9375 39.5625C93.4792 39.6458 93.1042 39.7083 92.8125 39.75C92.2292 40.3333 91.625 40.875 91 41.375C90.4167 41.8333 89.8333 42.3125 89.25 42.8125C88.6667 43.2708 88.1042 43.7708 87.5625 44.3125C87.0625 44.8125 86.625 45.3958 86.25 46.0625C86.1667 46.1875 86 46.4583 85.75 46.875C85.5417 47.2917 85.2917 47.75 85 48.25C84.75 48.75 84.5 49.2083 84.25 49.625C84.0417 50.0417 83.9167 50.2917 83.875 50.375C83.625 50.875 83.3333 51.4167 83 52C82.7083 52.5417 82.4167 53.125 82.125 53.75C81.8333 54.375 81.5833 55.0208 81.375 55.6875C81.2083 56.3125 81.1042 56.9167 81.0625 57.5C80.9792 57.9583 80.8958 58.6875 80.8125 59.6875C80.7708 60.6875 80.7292 61.7292 80.6875 62.8125C80.6458 63.8542 80.6042 64.8333 80.5625 65.75C80.5208 66.625 80.5 67.1875 80.5 67.4375ZM69.5 63.6875C69.5 62.8125 69.6458 61.9375 69.9375 61.0625C70.2708 60.1875 70.5417 59.3333 70.75 58.5C70.7917 58.3333 70.875 57.875 71 57.125C71.1667 56.3333 71.3333 55.5 71.5 54.625C71.7083 53.75 71.8958 52.9375 72.0625 52.1875C72.2292 51.4375 72.3333 50.9792 72.375 50.8125C72.4583 50.5625 72.5625 50.3125 72.6875 50.0625C72.7708 49.8542 72.8542 49.6458 72.9375 49.4375C73.0625 49.1875 73.1667 49 73.25 48.875C73.5417 48.4583 73.8958 47.875 74.3125 47.125C74.7292 46.375 75.125 45.6458 75.5 44.9375C75.9167 44.2292 76.2708 43.625 76.5625 43.125C76.8958 42.5833 77.1042 42.2917 77.1875 42.25C77.2292 42.125 77.3958 41.9167 77.6875 41.625C77.9792 41.2917 78.2917 40.9375 78.625 40.5625C79 40.1875 79.3542 39.8542 79.6875 39.5625C80.0208 39.2292 80.2917 39.0208 80.5 38.9375C80.5833 38.8125 80.8125 38.7083 81.1875 38.625C81.6042 38.5417 81.8542 38.5 81.9375 38.5C83.1875 37.875 84.375 37.2917 85.5 36.75C86.625 36.2083 87.75 35.6875 88.875 35.1875C90.0417 34.6875 91.2292 34.2292 92.4375 33.8125C93.6458 33.3958 94.9792 33 96.4375 32.625H96.5H96.75C97.4583 32.6667 98.375 32.7292 99.5 32.8125C100.625 32.8542 101.708 32.9167 102.75 33C103.833 33.0417 104.75 33.0833 105.5 33.125C106.292 33.1667 106.729 33.1875 106.812 33.1875C108.688 33.3542 110.542 33.9375 112.375 34.9375C114.25 35.8958 115.979 37.1042 117.562 38.5625C119.188 40.0208 120.583 41.6458 121.75 43.4375C122.958 45.1875 123.854 46.8958 124.438 48.5625C124.479 48.6042 124.521 48.7917 124.562 49.125C124.646 49.4167 124.708 49.75 124.75 50.125C124.833 50.5 124.896 50.8542 124.938 51.1875C125.021 51.4792 125.104 51.6667 125.188 51.75C125.188 51.8333 125.25 52.0833 125.375 52.5C125.542 52.875 125.708 53.2917 125.875 53.75C126.083 54.2083 126.25 54.625 126.375 55C126.542 55.375 126.646 55.6042 126.688 55.6875C126.688 55.7708 126.708 55.875 126.75 56C126.75 56.0833 126.75 56.1667 126.75 56.25C126.792 56.3333 126.812 56.3958 126.812 56.4375C126.812 57.1458 126.771 57.8333 126.688 58.5C126.604 59.125 126.562 59.7708 126.562 60.4375C126.562 60.9792 126.604 61.4583 126.688 61.875C126.812 62.2917 126.875 62.75 126.875 63.25V64.3125C126.333 66.8125 125.812 69.2292 125.312 71.5625C124.812 73.8542 124.104 76.0208 123.188 78.0625C122.271 80.0625 121.062 81.9167 119.562 83.625C118.062 85.3333 116.042 86.8333 113.5 88.125C111.042 89.375 108.5 90.3542 105.875 91.0625C103.292 91.7708 100.646 92.125 97.9375 92.125C97.6875 92.125 97.3542 92.1042 96.9375 92.0625C96.5625 92.0625 96.1875 92.0625 95.8125 92.0625C95.4375 92.0625 95.1042 92.0417 94.8125 92C94.5208 92 94.375 92 94.375 92C94.3333 92 94.0208 91.9375 93.4375 91.8125C92.8958 91.6458 92.2292 91.4583 91.4375 91.25C90.6875 91.0417 89.9167 90.8333 89.125 90.625C88.3333 90.375 87.6875 90.1875 87.1875 90.0625C86.7292 89.9375 86.25 89.8125 85.75 89.6875C85.25 89.5625 84.7708 89.3542 84.3125 89.0625C83.1458 88.4375 82 87.7708 80.875 87.0625C79.75 86.3542 78.6458 85.625 77.5625 84.875C77.5208 84.7917 77.4583 84.7083 77.375 84.625C77.2917 84.5 77.2292 84.3958 77.1875 84.3125C76.2708 83.1875 75.3542 81.7917 74.4375 80.125C73.5208 78.4167 72.6875 76.625 71.9375 74.75C71.2292 72.8333 70.6458 70.9167 70.1875 69C69.7292 67.0417 69.5 65.2708 69.5 63.6875ZM134.312 91.5625C133.729 91.3542 133.333 91.1042 133.125 90.8125C132.917 90.5208 132.812 90.0833 132.812 89.5C132.812 88.5833 133.229 88 134.062 87.75C134.896 87.4583 135.833 87.25 136.875 87.125C137.958 86.9583 138.958 86.7292 139.875 86.4375C140.792 86.1042 141.354 85.4375 141.562 84.4375C141.771 82.8542 141.896 81.3958 141.938 80.0625C141.979 78.6875 142 77.3333 142 76V72.5625C142 69.3125 141.917 66.0417 141.75 62.75C141.625 59.4583 141.562 56.1667 141.562 52.875C141.562 49.9167 141.625 47.0208 141.75 44.1875C141.917 41.3542 142 38.4792 142 35.5625C142 32.8125 141.917 30.1042 141.75 27.4375C141.625 24.7708 141.562 22.0625 141.562 19.3125V16.625C141.229 15.6667 140.792 14.8125 140.25 14.0625C139.75 13.2708 139.021 12.6875 138.062 12.3125C137.812 12.1875 137.312 12.0625 136.562 11.9375C135.854 11.8125 135.104 11.6667 134.312 11.5C133.562 11.3333 132.875 11.125 132.25 10.875C131.667 10.625 131.375 10.2708 131.375 9.8125C131.375 9.47917 131.458 9.14583 131.625 8.8125C131.833 8.4375 132.083 8.20833 132.375 8.125C133.833 7.33333 135.333 6.64583 136.875 6.0625C138.417 5.47917 139.979 4.85417 141.562 4.1875C142.188 3.89583 142.833 3.5625 143.5 3.1875C144.208 2.8125 144.917 2.45833 145.625 2.125C146.375 1.75 147.125 1.45833 147.875 1.25C148.625 1 149.396 0.875 150.188 0.875C150.479 0.875 150.854 0.895833 151.312 0.9375C151.812 0.979167 152.167 1.10417 152.375 1.3125C152.542 1.47917 152.667 1.8125 152.75 2.3125C152.833 2.77083 152.875 3.10417 152.875 3.3125C152.875 3.52083 152.875 3.91667 152.875 4.5C152.917 5.04167 152.938 5.625 152.938 6.25C152.938 6.875 152.938 7.47917 152.938 8.0625C152.979 8.64583 153 9.0625 153 9.3125C153 9.64583 152.979 10.125 152.938 10.75C152.938 11.375 152.938 12 152.938 12.625C152.938 13.25 152.917 13.8125 152.875 14.3125C152.875 14.8125 152.875 15.0833 152.875 15.125C152.875 15.375 152.854 15.8542 152.812 16.5625C152.812 17.2292 152.792 17.9375 152.75 18.6875C152.708 19.4375 152.646 20.1667 152.562 20.875C152.521 21.5417 152.458 22 152.375 22.25C152.333 22.3333 152.292 22.5 152.25 22.75C152.208 22.9583 152.167 23.2083 152.125 23.5C152.083 23.7917 152.042 24.0625 152 24.3125C151.958 24.5208 151.938 24.6667 151.938 24.75V25.3125C151.938 25.3958 151.979 25.6042 152.062 25.9375C152.188 26.2708 152.292 26.4792 152.375 26.5625V38.6875C152.833 39.6458 153.104 40.5833 153.188 41.5C153.271 42.375 153.312 43.3958 153.312 44.5625C153.312 45.3125 153.292 46.1667 153.25 47.125C153.208 48.0833 153.083 48.9792 152.875 49.8125C152.875 51.5208 152.896 53.1667 152.938 54.75C152.979 56.2917 153 57.8542 153 59.4375C153 62.0208 152.958 64.5625 152.875 67.0625C152.792 69.5625 152.625 72.1458 152.375 74.8125C152.333 75.0208 152.271 75.5208 152.188 76.3125C152.104 77.1042 152 77.9583 151.875 78.875C151.792 79.75 151.688 80.5833 151.562 81.375C151.479 82.1667 151.417 82.6458 151.375 82.8125V83.375C151.375 83.75 151.479 84.1667 151.688 84.625C151.896 85.0417 152.167 85.4375 152.5 85.8125C152.833 86.1875 153.188 86.5 153.562 86.75C153.979 87 154.375 87.125 154.75 87.125H162.812C163.188 87.125 163.5 87.2292 163.75 87.4375C164 87.6042 164.208 87.8333 164.375 88.125C164.542 88.4167 164.667 88.7083 164.75 89C164.833 89.2917 164.875 89.5625 164.875 89.8125C164.875 90.3958 164.708 90.8542 164.375 91.1875C164.083 91.5208 163.708 91.7708 163.25 91.9375C162.792 92.1042 162.292 92.2083 161.75 92.25C161.25 92.2917 160.792 92.3125 160.375 92.3125H159.062C154.979 92.1458 150.854 92.0417 146.688 92C142.562 92 138.438 91.8542 134.312 91.5625ZM176.062 74.8125C175.979 74.5208 175.792 73.7708 175.5 72.5625C175.25 71.3125 175.125 69.3542 175.125 66.6875V52.5625C175.042 52.3542 174.979 52.0208 174.938 51.5625C174.896 51.1042 174.875 50.7708 174.875 50.5625C174.833 50.3958 174.792 50 174.75 49.375C174.75 48.75 174.75 48.1042 174.75 47.4375C174.75 46.7292 174.75 46.0833 174.75 45.5C174.75 44.875 174.75 44.4792 174.75 44.3125C174.75 44.2708 174.688 44.1458 174.562 43.9375C174.479 43.6875 174.375 43.4167 174.25 43.125C174.167 42.7917 174.062 42.4792 173.938 42.1875C173.812 41.8958 173.729 41.6667 173.688 41.5C173.521 41 173.083 40.6042 172.375 40.3125C171.708 39.9792 170.958 39.6875 170.125 39.4375C169.292 39.1875 168.458 38.9583 167.625 38.75C166.792 38.5417 166.146 38.3333 165.688 38.125C165.188 37.9167 164.896 37.6042 164.812 37.1875C164.729 36.7708 164.688 36.375 164.688 36C164.688 35.9167 164.771 35.7083 164.938 35.375C165.021 35.2083 165.125 35.0625 165.25 34.9375C165.333 34.7292 165.604 34.5 166.062 34.25C166.521 33.9583 166.833 33.7917 167 33.75C167.125 33.75 167.417 33.75 167.875 33.75C168.375 33.75 168.896 33.75 169.438 33.75C169.979 33.75 170.479 33.75 170.938 33.75C171.438 33.7083 171.75 33.6667 171.875 33.625C171.917 33.625 172.021 33.625 172.188 33.625C172.396 33.5833 172.604 33.5417 172.812 33.5C173.021 33.4583 173.208 33.4375 173.375 33.4375C173.542 33.3958 173.646 33.375 173.688 33.375H176.625C176.75 33.375 176.979 33.3542 177.312 33.3125C177.688 33.2708 178.062 33.2292 178.438 33.1875C178.854 33.1458 179.229 33.1042 179.562 33.0625C179.938 32.9792 180.188 32.9167 180.312 32.875C180.396 32.875 180.521 32.8542 180.688 32.8125C180.896 32.7708 181.104 32.75 181.312 32.75C181.562 32.7083 181.771 32.6667 181.938 32.625C182.146 32.5833 182.271 32.5625 182.312 32.5625C183.104 32.6042 183.958 32.8333 184.875 33.25C185.792 33.6667 186.542 34.2292 187.125 34.9375V37.0625C187.125 40.2708 186.938 43.4375 186.562 46.5625C186.188 49.6458 186 52.7917 186 56C186 57.3333 186.083 58.6458 186.25 59.9375C186.458 61.2292 186.562 62.5833 186.562 64C186.562 64.6667 186.458 65.3542 186.25 66.0625C186.083 66.7292 186 67.4375 186 68.1875C186 70.1875 186.146 72.0833 186.438 73.875C186.771 75.6667 187.354 77.2292 188.188 78.5625C189.021 79.8958 190.146 80.9583 191.562 81.75C193.021 82.5417 194.875 82.9375 197.125 82.9375C197.917 82.9375 198.771 82.875 199.688 82.75C200.604 82.625 201.5 82.4375 202.375 82.1875C203.292 81.9375 204.146 81.6042 204.938 81.1875C205.771 80.7708 206.5 80.2708 207.125 79.6875C208.167 78.6042 208.958 77.5625 209.5 76.5625C210.083 75.5625 210.5 74.5208 210.75 73.4375C211.042 72.3125 211.208 71.1458 211.25 69.9375C211.292 68.6875 211.312 67.2917 211.312 65.75C211.312 65.375 211.333 64.8958 211.375 64.3125C211.417 63.7292 211.438 63.1458 211.438 62.5625C211.312 61.3958 211.208 60.4375 211.125 59.6875C211.083 58.8958 211.042 58.1042 211 57.3125C210.958 56.4792 210.917 55.5625 210.875 54.5625C210.875 53.5625 210.875 52.2708 210.875 50.6875V38.6875C210.875 38.5625 210.75 38.4375 210.5 38.3125C210.292 38.1458 210.021 38 209.688 37.875C209.396 37.7083 209.083 37.5833 208.75 37.5C208.417 37.375 208.146 37.3125 207.938 37.3125C207.896 37.2292 207.542 37.1875 206.875 37.1875C206.292 37.1875 205.667 37.2083 205 37.25C204.333 37.2917 203.958 37.3125 203.875 37.3125C203.417 37.2708 202.896 37.1667 202.312 37C201.771 36.8333 201.229 36.625 200.688 36.375C200.188 36.125 199.75 35.8125 199.375 35.4375C199.042 35.0625 198.875 34.625 198.875 34.125V33.75C198.958 33.625 199.062 33.5 199.188 33.375C199.271 33.2917 199.333 33.2083 199.375 33.125C199.458 33.0417 199.521 32.9583 199.562 32.875C199.688 32.875 199.917 32.8542 200.25 32.8125C200.625 32.7708 201 32.75 201.375 32.75C201.75 32.7083 202.104 32.6667 202.438 32.625C202.812 32.5833 203.062 32.5625 203.188 32.5625C203.896 32.4792 204.583 32.375 205.25 32.25C205.917 32.0833 206.542 32 207.125 32C207.958 32 208.812 32.0833 209.688 32.25C210.562 32.375 211.438 32.4792 212.312 32.5625C212.479 32.5625 212.812 32.5833 213.312 32.625C213.854 32.6667 214.417 32.7083 215 32.75C215.583 32.75 216.104 32.7708 216.562 32.8125C217.062 32.8542 217.375 32.875 217.5 32.875C217.667 32.9167 217.938 32.9375 218.312 32.9375C218.729 32.9375 219.125 32.9583 219.5 33C219.917 33 220.292 33.0625 220.625 33.1875C220.958 33.2708 221.167 33.4583 221.25 33.75C221.375 34.0833 221.5 34.4792 221.625 34.9375C221.792 35.3542 221.917 35.8125 222 36.3125C222.125 36.8125 222.208 37.3125 222.25 37.8125C222.333 38.2708 222.375 38.6667 222.375 39C222.375 44.4167 222.188 49.8333 221.812 55.25C221.438 60.625 221.25 66.0208 221.25 71.4375V75.8125C221.25 75.8958 221.271 76.125 221.312 76.5C221.396 76.8333 221.479 77.2083 221.562 77.625C221.646 78.0417 221.708 78.4583 221.75 78.875C221.833 79.25 221.896 79.5208 221.938 79.6875C221.938 79.9375 222.021 80.2708 222.188 80.6875C222.396 81.0625 222.646 81.4375 222.938 81.8125C223.271 82.1458 223.625 82.4375 224 82.6875C224.375 82.8958 224.771 82.9792 225.188 82.9375C225.271 82.9375 225.417 82.8958 225.625 82.8125C225.875 82.7292 226.125 82.625 226.375 82.5C226.667 82.375 226.917 82.2708 227.125 82.1875C227.375 82.1042 227.542 82.0625 227.625 82.0625C227.667 82.0208 227.812 82 228.062 82C228.312 81.9583 228.562 81.9375 228.812 81.9375C229.104 81.8958 229.375 81.875 229.625 81.875C229.875 81.8333 230.042 81.8125 230.125 81.8125C230.125 83.1042 229.833 84.125 229.25 84.875C228.708 85.5833 228 86.1667 227.125 86.625C226.292 87.0417 225.354 87.3958 224.312 87.6875C223.271 87.9792 222.25 88.3333 221.25 88.75C220.667 89 220.083 89.3125 219.5 89.6875C218.958 90.0625 218.396 90.4167 217.812 90.75C217.271 91.0833 216.688 91.375 216.062 91.625C215.479 91.875 214.875 92 214.25 92C213.375 92 212.729 91.9167 212.312 91.75C211.896 91.5833 211.583 91.3333 211.375 91C211.208 90.625 211.104 90.1875 211.062 89.6875C211.062 89.1458 211 88.5208 210.875 87.8125C210.875 87.6875 210.792 87.4375 210.625 87.0625C210.5 86.6875 210.438 86.4583 210.438 86.375C210.396 86.2083 210.333 85.9583 210.25 85.625C210.208 85.2917 210.167 84.9583 210.125 84.625C210.083 84.25 210.021 83.9167 209.938 83.625C209.896 83.2917 209.854 83.0625 209.812 82.9375H209.5C209.167 82.9375 208.75 83.0625 208.25 83.3125C207.75 83.5208 207.25 83.7708 206.75 84.0625C206.25 84.3542 205.75 84.6667 205.25 85C204.792 85.3333 204.438 85.5833 204.188 85.75C204.104 85.7917 203.938 85.9583 203.688 86.25C203.438 86.5417 203.146 86.875 202.812 87.25C202.521 87.5833 202.229 87.8958 201.938 88.1875C201.688 88.4792 201.542 88.6667 201.5 88.75C201.042 89.0417 200.333 89.4375 199.375 89.9375C198.458 90.3958 197.458 90.8542 196.375 91.3125C195.292 91.7708 194.25 92.1667 193.25 92.5C192.25 92.8333 191.5 93 191 93H189.812C189.562 92.9583 189.208 92.8958 188.75 92.8125C188.333 92.7708 187.896 92.7083 187.438 92.625C187.021 92.5833 186.646 92.5417 186.312 92.5C185.979 92.4583 185.771 92.3958 185.688 92.3125C185.604 92.3125 185.354 92.2083 184.938 92C184.521 91.75 184.271 91.5625 184.188 91.4375C183.479 91.0625 182.792 90.7292 182.125 90.4375C181.5 90.1042 180.896 89.7292 180.312 89.3125C179.771 88.8958 179.271 88.4167 178.812 87.875C178.354 87.3333 177.938 86.625 177.562 85.75C177.438 85.5 177.292 85.1667 177.125 84.75C176.958 84.2917 176.792 83.6458 176.625 82.8125C176.5 81.9792 176.375 80.9375 176.25 79.6875C176.125 78.3958 176.062 76.7708 176.062 74.8125ZM243.188 72.75C243.188 68.4583 243.292 64.2083 243.5 60C243.708 55.7917 243.812 51.5833 243.812 47.375C243.812 46.0833 243.562 45.125 243.062 44.5C242.604 43.875 241.979 43.4375 241.188 43.1875C240.438 42.9375 239.562 42.8125 238.562 42.8125C237.604 42.8125 236.604 42.7708 235.562 42.6875C235.396 42.5208 235.188 42.2917 234.938 42C234.729 41.7083 234.625 41.4792 234.625 41.3125C234.625 41.1042 234.708 40.875 234.875 40.625C235.083 40.3333 235.208 40.1875 235.25 40.1875C235.458 40.0208 235.854 39.6667 236.438 39.125C237.021 38.5417 237.646 37.9167 238.312 37.25C238.979 36.5833 239.583 35.9583 240.125 35.375C240.708 34.7917 241.104 34.375 241.312 34.125C241.438 34.0417 241.604 33.875 241.812 33.625C242.021 33.3333 242.25 33.0417 242.5 32.75C242.75 32.4167 243 32.125 243.25 31.875C243.5 31.5833 243.688 31.375 243.812 31.25C243.938 31.0833 244.229 30.6667 244.688 30C245.188 29.3333 245.771 28.5625 246.438 27.6875C247.104 26.7708 247.812 25.8333 248.562 24.875C249.354 23.875 250.104 22.9792 250.812 22.1875C251.521 21.3542 252.167 20.6667 252.75 20.125C253.333 19.5833 253.75 19.3125 254 19.3125H254.188C254.646 19.5625 254.979 19.8542 255.188 20.1875C255.396 20.5208 255.542 20.8958 255.625 21.3125C255.75 21.7292 255.833 22.1875 255.875 22.6875C255.917 23.1458 256 23.625 256.125 24.125V24.3125C256.125 25.4375 256.021 26.5625 255.812 27.6875C255.646 28.8125 255.562 30 255.562 31.25C255.562 31.375 255.562 31.5417 255.562 31.75C255.562 31.9167 255.583 32.1042 255.625 32.3125C255.625 32.5208 255.646 32.7708 255.688 33.0625L256.688 34.125H258.062C259.979 34.125 261.896 33.9583 263.812 33.625C265.104 33.2917 266.396 32.875 267.688 32.375C269.021 31.8333 270.354 31.5625 271.688 31.5625C272.938 31.5625 273.771 31.8958 274.188 32.5625C274.604 33.2292 274.812 34.0833 274.812 35.125C274.812 36.1667 274.583 37.0833 274.125 37.875C273.708 38.6667 273.125 39.3333 272.375 39.875C271.667 40.375 270.854 40.7917 269.938 41.125C269.021 41.4167 268.104 41.5833 267.188 41.625C267.104 41.6667 266.917 41.7083 266.625 41.75C266.333 41.75 266.021 41.7708 265.688 41.8125C265.354 41.8125 265.042 41.8125 264.75 41.8125C264.5 41.8125 264.333 41.8125 264.25 41.8125C264.167 41.8958 263.979 41.9792 263.688 42.0625C263.438 42.1458 263.146 42.2292 262.812 42.3125C262.479 42.3958 262.167 42.4792 261.875 42.5625C261.583 42.6042 261.396 42.6458 261.312 42.6875H256.125L255.188 43C255.104 44.0833 255.042 45.1458 255 46.1875C254.917 47.0625 254.854 47.9792 254.812 48.9375C254.812 49.8542 254.812 50.625 254.812 51.25C254.812 51.3333 254.771 51.6042 254.688 52.0625C254.646 52.5208 254.625 52.8542 254.625 53.0625C254.625 54.1042 254.708 55.125 254.875 56.125C255.083 57.125 255.188 58.1667 255.188 59.25C255.188 61.125 255.104 63.0417 254.938 65C254.812 66.9167 254.75 68.8542 254.75 70.8125C254.75 71.2708 254.75 71.75 254.75 72.25C254.75 72.75 254.771 73.25 254.812 73.75C254.479 74.125 254.292 74.4792 254.25 74.8125C254.208 75.1458 254.188 75.5417 254.188 76C254.188 76.8333 254.312 77.6042 254.562 78.3125C254.854 78.9792 255.229 79.6875 255.688 80.4375C256.562 81.8958 257.521 82.8958 258.562 83.4375C259.604 83.9375 261.021 84.1875 262.812 84.1875C263.896 84.1875 265.104 83.9583 266.438 83.5C267.812 83 269 82.5833 270 82.25C270.083 82.25 270.333 82.1875 270.75 82.0625C271.167 81.8958 271.625 81.7292 272.125 81.5625C272.625 81.3542 273.083 81.1875 273.5 81.0625C273.917 80.8958 274.188 80.7917 274.312 80.75H274.812C275.146 80.75 275.396 80.875 275.562 81.125C275.729 81.375 275.812 81.6875 275.812 82.0625C275.812 83.2292 275.479 84.2292 274.812 85.0625C274.188 85.8542 273.417 86.5417 272.5 87.125C271.583 87.7083 270.583 88.2083 269.5 88.625C268.458 89.0417 267.542 89.4375 266.75 89.8125C266.625 89.8125 266.375 89.8958 266 90.0625C265.667 90.1875 265.396 90.2917 265.188 90.375C263.979 90.75 262.812 91.1667 261.688 91.625C260.604 92.0833 259.396 92.3125 258.062 92.3125C257.229 92.3125 256.292 92.2292 255.25 92.0625C254.25 91.8958 253.208 91.6875 252.125 91.4375C251.083 91.1458 250.062 90.8125 249.062 90.4375C248.104 90.0208 247.292 89.5625 246.625 89.0625C246.458 88.9375 246.271 88.7917 246.062 88.625C245.854 88.4167 245.646 88.2083 245.438 88C245.271 87.75 245.104 87.5417 244.938 87.375C244.812 87.2083 244.75 87.0833 244.75 87L243.25 81.3125C243.25 81.2708 243.25 80.9167 243.25 80.25C243.25 79.5833 243.229 78.7917 243.188 77.875C243.188 76.9583 243.188 76.0208 243.188 75.0625C243.188 74.1042 243.188 73.3333 243.188 72.75ZM286.312 7.75C286.312 6.83333 286.479 5.95833 286.812 5.125C287.188 4.29167 287.688 3.5625 288.312 2.9375C288.938 2.3125 289.667 1.8125 290.5 1.4375C291.375 1.0625 292.292 0.875 293.25 0.875C293.875 0.875 294.479 1.02083 295.062 1.3125C295.646 1.60417 296.188 1.97917 296.688 2.4375C297.229 2.89583 297.708 3.39583 298.125 3.9375C298.583 4.4375 298.979 4.89583 299.312 5.3125C299.604 5.52083 299.771 5.83333 299.812 6.25C299.854 6.66667 299.875 7.10417 299.875 7.5625C299.875 8.8125 299.625 9.875 299.125 10.75C298.625 11.5833 297.958 12.2917 297.125 12.875C296.333 13.4167 295.417 13.8333 294.375 14.125C293.333 14.4167 292.271 14.6042 291.188 14.6875C289.729 13.9375 288.542 13.0208 287.625 11.9375C286.75 10.8542 286.312 9.45833 286.312 7.75ZM281.688 89.75C281.688 88.75 281.958 88.1042 282.5 87.8125C283.042 87.5208 283.708 87.3333 284.5 87.25C285.292 87.1667 286.125 87.1042 287 87.0625C287.917 86.9792 288.708 86.6458 289.375 86.0625C289.375 85.8125 289.396 85.3333 289.438 84.625C289.479 83.9167 289.5 83.1667 289.5 82.375C289.542 81.5417 289.583 80.7708 289.625 80.0625C289.667 79.3542 289.688 78.8542 289.688 78.5625V71C289.688 70.7917 289.688 70.3333 289.688 69.625C289.729 68.9167 289.771 68.1042 289.812 67.1875C289.896 66.2708 289.958 65.2917 290 64.25C290.042 63.2083 290.083 62.2292 290.125 61.3125C290.208 60.3958 290.25 59.6042 290.25 58.9375C290.292 58.2708 290.312 57.8333 290.312 57.625V49.8125C290.312 49.8125 290.333 49.7292 290.375 49.5625C290.417 49.3542 290.458 49.1667 290.5 49C290.583 48.7917 290.646 48.6042 290.688 48.4375C290.729 48.2292 290.75 48.125 290.75 48.125L290.875 47.875C290.875 47.7917 290.854 47.7292 290.812 47.6875C290.812 47.6458 290.812 47.6042 290.812 47.5625C290.771 47.5208 290.75 47.4792 290.75 47.4375C290.75 47.4375 290.688 47.375 290.562 47.25C290.438 47.0833 290.292 46.9167 290.125 46.75C289.958 46.5417 289.792 46.3542 289.625 46.1875C289.5 45.9792 289.417 45.8333 289.375 45.75C288.958 45.1667 288.312 44.75 287.438 44.5C286.604 44.2083 285.75 43.9375 284.875 43.6875C284.042 43.4375 283.292 43.1458 282.625 42.8125C282 42.4375 281.688 41.8958 281.688 41.1875C281.688 40.7292 281.917 40.3542 282.375 40.0625C282.875 39.7292 283.292 39.5208 283.625 39.4375C283.75 39.3958 284.062 39.3333 284.562 39.25C285.062 39.1667 285.604 39.0833 286.188 39C286.812 38.9167 287.375 38.8333 287.875 38.75C288.375 38.625 288.688 38.5417 288.812 38.5C288.854 38.4583 289 38.3958 289.25 38.3125C289.5 38.2292 289.75 38.1458 290 38.0625C290.292 37.9375 290.542 37.8333 290.75 37.75C291 37.6667 291.146 37.625 291.188 37.625C291.562 37.5 292.188 37.3542 293.062 37.1875C293.938 37.0208 294.625 36.8125 295.125 36.5625C295.542 36.3542 295.896 36.1458 296.188 35.9375C296.521 35.6875 296.833 35.4792 297.125 35.3125C297.458 35.1042 297.792 34.9583 298.125 34.875C298.5 34.75 298.938 34.6875 299.438 34.6875C300.188 34.6875 300.75 35.0417 301.125 35.75C301.5 36.4583 301.688 37.1875 301.688 37.9375C301.688 39.1458 301.583 40.375 301.375 41.625C301.208 42.8333 301.125 44.0625 301.125 45.3125C301.125 46.3542 301.146 47.2708 301.188 48.0625C301.229 48.8125 301.396 49.7917 301.688 51V76.5625C301.729 76.6875 301.771 76.8542 301.812 77.0625C301.896 77.2708 301.938 77.5 301.938 77.75C301.979 78 302.021 78.25 302.062 78.5C302.104 78.7083 302.167 78.8542 302.25 78.9375V79.25V79.5625C302.25 79.6458 302.229 79.7917 302.188 80C302.146 80.2083 302.104 80.4583 302.062 80.75C302.021 81 301.958 81.25 301.875 81.5C301.792 81.7083 301.729 81.8542 301.688 81.9375V82.5C301.688 82.625 301.729 82.9167 301.812 83.375C301.896 83.8333 302 84.3333 302.125 84.875C302.292 85.4167 302.458 85.9167 302.625 86.375C302.792 86.7917 302.958 87.0417 303.125 87.125C303.167 87.2083 303.271 87.25 303.438 87.25C303.604 87.25 303.75 87.25 303.875 87.25C304.125 87.25 304.354 87.2292 304.562 87.1875C304.812 87.1458 304.979 87.125 305.062 87.125C305.104 87.2083 305.312 87.3125 305.688 87.4375C306.104 87.5208 306.354 87.5625 306.438 87.5625C306.562 87.6458 306.812 87.7083 307.188 87.75C307.562 87.7917 307.938 87.8333 308.312 87.875C308.729 87.875 309.125 87.9167 309.5 88C309.875 88.0417 310.125 88.0833 310.25 88.125C310.708 88.2083 311 88.5 311.125 89C311.25 89.5 311.312 89.9167 311.312 90.25C311.312 90.9167 311.042 91.4167 310.5 91.75C309.958 92.0417 309.396 92.2292 308.812 92.3125H303.75H298.312C298.229 92.3125 298.021 92.2917 297.688 92.25C297.396 92.2083 297.062 92.1458 296.688 92.0625C296.354 92.0208 296.021 91.9792 295.688 91.9375C295.396 91.8542 295.208 91.8125 295.125 91.8125H294.562C293.438 91.8125 292.25 91.8958 291 92.0625C289.792 92.2292 288.562 92.3125 287.312 92.3125H284.062C283.979 92.2292 283.688 92.0833 283.188 91.875C282.729 91.6667 282.417 91.5208 282.25 91.4375C282.042 91.2708 281.896 91.1042 281.812 90.9375C281.729 90.7292 281.688 90.5417 281.688 90.375V89.75ZM327.375 67.4375C327.375 69.8125 327.854 72.1042 328.812 74.3125C329.812 76.4792 331.104 78.4167 332.688 80.125C333.188 80.625 333.688 81.1875 334.188 81.8125C334.688 82.4375 335.208 83.0417 335.75 83.625C336.333 84.2083 336.938 84.75 337.562 85.25C338.229 85.75 338.938 86.125 339.688 86.375L343.625 87.25H344.125H344.688C345.062 87.2083 345.583 87.1667 346.25 87.125C346.917 87.0833 347.583 87.0417 348.25 87C348.917 86.9583 349.5 86.9167 350 86.875C350.5 86.8333 350.792 86.8125 350.875 86.8125C351.5 86.6875 352.188 86.375 352.938 85.875C353.729 85.375 354.521 84.8125 355.312 84.1875C356.104 83.5208 356.854 82.8542 357.562 82.1875C358.312 81.4792 358.958 80.8958 359.5 80.4375C359.542 80.4375 359.604 80.3958 359.688 80.3125C359.729 80.2708 359.771 80.2083 359.812 80.125C360.854 77.9583 361.688 75.6875 362.312 73.3125C362.979 70.8958 363.312 68.5417 363.312 66.25C363.312 64.375 363.146 62.625 362.812 61C362.521 59.375 362.021 57.75 361.312 56.125C361.312 56 361.229 55.75 361.062 55.375C360.938 55 360.875 54.7708 360.875 54.6875C360.625 53.6042 360.354 52.4375 360.062 51.1875C359.812 49.8958 359.271 48.8333 358.438 48C358.354 47.875 358.125 47.625 357.75 47.25C357.375 46.875 356.958 46.4792 356.5 46.0625C356.083 45.6458 355.688 45.25 355.312 44.875C354.979 44.5 354.792 44.25 354.75 44.125C354.667 44.0833 354.542 43.9792 354.375 43.8125C354.25 43.6042 354.104 43.3958 353.938 43.1875C353.771 42.9792 353.604 42.7917 353.438 42.625C353.312 42.4167 353.25 42.2917 353.25 42.25C353.125 42.1667 352.938 42 352.688 41.75C352.479 41.4583 352.333 41.2708 352.25 41.1875C352.167 41.1875 352.021 41.1458 351.812 41.0625C351.604 40.9375 351.375 40.8125 351.125 40.6875C350.875 40.5625 350.646 40.4583 350.438 40.375C350.229 40.25 350.104 40.1875 350.062 40.1875C349.938 40.1042 349.604 40 349.062 39.875C348.521 39.75 347.938 39.625 347.312 39.5C346.729 39.375 346.167 39.2708 345.625 39.1875C345.125 39.0625 344.812 38.9792 344.688 38.9375C344.479 38.9375 344.146 38.9792 343.688 39.0625C343.229 39.1042 342.75 39.1875 342.25 39.3125C341.75 39.3958 341.271 39.4792 340.812 39.5625C340.354 39.6458 339.979 39.7083 339.688 39.75C339.104 40.3333 338.5 40.875 337.875 41.375C337.292 41.8333 336.708 42.3125 336.125 42.8125C335.542 43.2708 334.979 43.7708 334.438 44.3125C333.938 44.8125 333.5 45.3958 333.125 46.0625C333.042 46.1875 332.875 46.4583 332.625 46.875C332.417 47.2917 332.167 47.75 331.875 48.25C331.625 48.75 331.375 49.2083 331.125 49.625C330.917 50.0417 330.792 50.2917 330.75 50.375C330.5 50.875 330.208 51.4167 329.875 52C329.583 52.5417 329.292 53.125 329 53.75C328.708 54.375 328.458 55.0208 328.25 55.6875C328.083 56.3125 327.979 56.9167 327.938 57.5C327.854 57.9583 327.771 58.6875 327.688 59.6875C327.646 60.6875 327.604 61.7292 327.562 62.8125C327.521 63.8542 327.479 64.8333 327.438 65.75C327.396 66.625 327.375 67.1875 327.375 67.4375ZM316.375 63.6875C316.375 62.8125 316.521 61.9375 316.812 61.0625C317.146 60.1875 317.417 59.3333 317.625 58.5C317.667 58.3333 317.75 57.875 317.875 57.125C318.042 56.3333 318.208 55.5 318.375 54.625C318.583 53.75 318.771 52.9375 318.938 52.1875C319.104 51.4375 319.208 50.9792 319.25 50.8125C319.333 50.5625 319.438 50.3125 319.562 50.0625C319.646 49.8542 319.729 49.6458 319.812 49.4375C319.938 49.1875 320.042 49 320.125 48.875C320.417 48.4583 320.771 47.875 321.188 47.125C321.604 46.375 322 45.6458 322.375 44.9375C322.792 44.2292 323.146 43.625 323.438 43.125C323.771 42.5833 323.979 42.2917 324.062 42.25C324.104 42.125 324.271 41.9167 324.562 41.625C324.854 41.2917 325.167 40.9375 325.5 40.5625C325.875 40.1875 326.229 39.8542 326.562 39.5625C326.896 39.2292 327.167 39.0208 327.375 38.9375C327.458 38.8125 327.688 38.7083 328.062 38.625C328.479 38.5417 328.729 38.5 328.812 38.5C330.062 37.875 331.25 37.2917 332.375 36.75C333.5 36.2083 334.625 35.6875 335.75 35.1875C336.917 34.6875 338.104 34.2292 339.312 33.8125C340.521 33.3958 341.854 33 343.312 32.625H343.375H343.625C344.333 32.6667 345.25 32.7292 346.375 32.8125C347.5 32.8542 348.583 32.9167 349.625 33C350.708 33.0417 351.625 33.0833 352.375 33.125C353.167 33.1667 353.604 33.1875 353.688 33.1875C355.562 33.3542 357.417 33.9375 359.25 34.9375C361.125 35.8958 362.854 37.1042 364.438 38.5625C366.062 40.0208 367.458 41.6458 368.625 43.4375C369.833 45.1875 370.729 46.8958 371.312 48.5625C371.354 48.6042 371.396 48.7917 371.438 49.125C371.521 49.4167 371.583 49.75 371.625 50.125C371.708 50.5 371.771 50.8542 371.812 51.1875C371.896 51.4792 371.979 51.6667 372.062 51.75C372.062 51.8333 372.125 52.0833 372.25 52.5C372.417 52.875 372.583 53.2917 372.75 53.75C372.958 54.2083 373.125 54.625 373.25 55C373.417 55.375 373.521 55.6042 373.562 55.6875C373.562 55.7708 373.583 55.875 373.625 56C373.625 56.0833 373.625 56.1667 373.625 56.25C373.667 56.3333 373.688 56.3958 373.688 56.4375C373.688 57.1458 373.646 57.8333 373.562 58.5C373.479 59.125 373.438 59.7708 373.438 60.4375C373.438 60.9792 373.479 61.4583 373.562 61.875C373.688 62.2917 373.75 62.75 373.75 63.25V64.3125C373.208 66.8125 372.688 69.2292 372.188 71.5625C371.688 73.8542 370.979 76.0208 370.062 78.0625C369.146 80.0625 367.938 81.9167 366.438 83.625C364.938 85.3333 362.917 86.8333 360.375 88.125C357.917 89.375 355.375 90.3542 352.75 91.0625C350.167 91.7708 347.521 92.125 344.812 92.125C344.562 92.125 344.229 92.1042 343.812 92.0625C343.438 92.0625 343.062 92.0625 342.688 92.0625C342.312 92.0625 341.979 92.0417 341.688 92C341.396 92 341.25 92 341.25 92C341.208 92 340.896 91.9375 340.312 91.8125C339.771 91.6458 339.104 91.4583 338.312 91.25C337.562 91.0417 336.792 90.8333 336 90.625C335.208 90.375 334.562 90.1875 334.062 90.0625C333.604 89.9375 333.125 89.8125 332.625 89.6875C332.125 89.5625 331.646 89.3542 331.188 89.0625C330.021 88.4375 328.875 87.7708 327.75 87.0625C326.625 86.3542 325.521 85.625 324.438 84.875C324.396 84.7917 324.333 84.7083 324.25 84.625C324.167 84.5 324.104 84.3958 324.062 84.3125C323.146 83.1875 322.229 81.7917 321.312 80.125C320.396 78.4167 319.562 76.625 318.812 74.75C318.104 72.8333 317.521 70.9167 317.062 69C316.604 67.0417 316.375 65.2708 316.375 63.6875ZM380.938 91.125C380.938 90.6667 380.958 90.2292 381 89.8125C381.083 89.3958 381.292 89.0417 381.625 88.75C381.792 88.75 382.125 88.7292 382.625 88.6875C383.125 88.6042 383.625 88.5417 384.125 88.5C384.667 88.4167 385.167 88.3333 385.625 88.25C386.125 88.1667 386.479 88.125 386.688 88.125C387.646 88 388.312 87.6042 388.688 86.9375C389.104 86.2708 389.375 85.4792 389.5 84.5625C389.625 83.6458 389.708 82.7083 389.75 81.75C389.792 80.75 389.958 79.875 390.25 79.125C390.292 78.5833 390.312 77.6667 390.312 76.375C390.354 75.0417 390.396 73.6458 390.438 72.1875C390.479 70.7292 390.5 69.3542 390.5 68.0625C390.542 66.7292 390.562 65.8125 390.562 65.3125C390.562 65.1875 390.562 64.875 390.562 64.375C390.604 63.8333 390.625 63.2292 390.625 62.5625C390.625 61.8958 390.625 61.2292 390.625 60.5625C390.667 59.8542 390.688 59.2708 390.688 58.8125C390.688 58.4792 390.667 58.0208 390.625 57.4375C390.625 56.8125 390.625 56.2083 390.625 55.625C390.625 55.0417 390.604 54.5208 390.562 54.0625C390.562 53.5625 390.562 53.2708 390.562 53.1875C390.562 53.0625 390.542 52.8125 390.5 52.4375C390.5 52.0625 390.479 51.6667 390.438 51.25C390.396 50.8333 390.354 50.4583 390.312 50.125C390.312 49.7917 390.292 49.5833 390.25 49.5C390.208 49.3333 390.042 49.1042 389.75 48.8125C389.458 48.5208 389.229 48.2917 389.062 48.125C388.979 47.7917 388.708 47.3958 388.25 46.9375C387.792 46.4375 387.458 46.1458 387.25 46.0625C386.833 45.7708 386.354 45.625 385.812 45.625C385.271 45.5833 384.729 45.5417 384.188 45.5C383.646 45.4583 383.167 45.3333 382.75 45.125C382.333 44.9167 382.062 44.4583 381.938 43.75C381.938 43.6667 382 43.5208 382.125 43.3125C382.292 43.0625 382.417 42.8958 382.5 42.8125C382.542 42.6875 382.646 42.5417 382.812 42.375C383.021 42.1667 383.229 41.9583 383.438 41.75C383.646 41.5417 383.833 41.375 384 41.25C384.208 41.0833 384.354 40.9792 384.438 40.9375C384.479 40.8542 384.708 40.6667 385.125 40.375C385.583 40.0833 386.125 39.7708 386.75 39.4375C387.375 39.0625 388 38.7083 388.625 38.375C389.292 38 389.833 37.7083 390.25 37.5C390.917 37.125 391.667 36.8333 392.5 36.625C393.333 36.375 394.146 36.0625 394.938 35.6875C395.646 35.2292 396.229 34.7917 396.688 34.375C397.188 33.9583 397.854 33.75 398.688 33.75C399.479 33.75 400.062 34.0625 400.438 34.6875C400.812 35.2708 401.083 35.9792 401.25 36.8125C401.417 37.6042 401.521 38.4375 401.562 39.3125C401.604 40.1458 401.667 40.8333 401.75 41.375C401.75 41.5417 401.75 41.8333 401.75 42.25C401.792 42.625 401.812 43.0417 401.812 43.5C401.854 43.9583 401.896 44.3958 401.938 44.8125C401.979 45.2292 402.021 45.5417 402.062 45.75C402.271 46.0833 402.479 46.3333 402.688 46.5C402.896 46.625 403.188 46.6875 403.562 46.6875H404.125C404.208 46.5625 404.354 46.3958 404.562 46.1875C404.771 45.9375 405 45.6875 405.25 45.4375C405.5 45.1875 405.729 44.9583 405.938 44.75C406.146 44.5 406.292 44.3125 406.375 44.1875C406.375 44.1458 406.458 44 406.625 43.75C406.833 43.5 406.938 43.3333 406.938 43.25C407.312 42.6667 407.75 42.2917 408.25 42.125C408.792 41.9167 409.292 41.5208 409.75 40.9375C410.708 39.6458 411.729 38.6042 412.812 37.8125C413.896 36.9792 415.146 36.0833 416.562 35.125C417.479 34.4167 418.479 34.0208 419.562 33.9375C420.646 33.8125 421.792 33.75 423 33.75C424 33.75 424.896 33.8333 425.688 34C426.521 34.1667 427.292 34.4167 428 34.75C428.708 35.0417 429.396 35.4167 430.062 35.875C430.771 36.3333 431.479 36.875 432.188 37.5C433.021 38.25 433.875 39.1042 434.75 40.0625C435.667 41.0208 436.292 42.0833 436.625 43.25C436.625 43.5417 436.646 43.9583 436.688 44.5C436.771 45 436.854 45.5 436.938 46C437.062 46.5 437.167 46.9583 437.25 47.375C437.333 47.7917 437.396 48.0417 437.438 48.125V52.875C437.438 52.9167 437.458 53.0833 437.5 53.375C437.542 53.625 437.583 53.9167 437.625 54.25C437.708 54.5417 437.771 54.8333 437.812 55.125C437.896 55.4167 437.938 55.6042 437.938 55.6875V56.1875V56.625C437.938 56.75 437.896 57.0417 437.812 57.5C437.771 57.9583 437.708 58.4583 437.625 59C437.583 59.5417 437.542 60.0625 437.5 60.5625C437.458 61.0208 437.438 61.3333 437.438 61.5V64.875V73.375C437.438 73.4583 437.417 73.6458 437.375 73.9375C437.333 74.2292 437.271 74.5417 437.188 74.875C437.146 75.1667 437.104 75.4583 437.062 75.75C437.021 76 437 76.1458 437 76.1875V82.6875C437 83.2708 437.042 83.9583 437.125 84.75C437.208 85.5 437.479 86.2292 437.938 86.9375C438.396 86.8542 438.833 86.7917 439.25 86.75C439.708 86.7083 440.167 86.6875 440.625 86.6875C441.083 86.6875 441.521 86.7083 441.938 86.75C442.354 86.7917 442.75 86.8542 443.125 86.9375C443.25 86.9375 443.417 87.0833 443.625 87.375C443.875 87.625 444.042 87.8333 444.125 88C444.125 88.0833 444.146 88.1875 444.188 88.3125C444.188 88.3958 444.188 88.4792 444.188 88.5625C444.229 88.6458 444.25 88.7083 444.25 88.75C444.25 89.125 444.146 89.5208 443.938 89.9375C443.771 90.3125 443.542 90.6667 443.25 91C443 91.3333 442.688 91.6042 442.312 91.8125C441.979 92.0208 441.646 92.125 441.312 92.125H440.875C440.792 92.0833 440.583 92.0208 440.25 91.9375C439.917 91.8542 439.562 91.7917 439.188 91.75C438.812 91.7083 438.438 91.6667 438.062 91.625C437.729 91.5833 437.521 91.5625 437.438 91.5625C437.312 91.5625 436.979 91.5833 436.438 91.625C435.938 91.6667 435.375 91.7083 434.75 91.75C434.125 91.7917 433.521 91.8542 432.938 91.9375C432.354 92.0208 431.938 92.0833 431.688 92.125C431.604 92.125 431.375 92.1667 431 92.25C430.625 92.375 430.375 92.4375 430.25 92.4375H423.125C423 92.4792 422.729 92.5208 422.312 92.5625C421.896 92.6042 421.438 92.6458 420.938 92.6875C420.479 92.7292 420.042 92.7708 419.625 92.8125C419.208 92.8542 418.938 92.875 418.812 92.875H418.062C417.854 92.875 417.646 92.75 417.438 92.5C417.229 92.25 417.042 91.9583 416.875 91.625C416.708 91.2917 416.562 90.9375 416.438 90.5625C416.354 90.1875 416.312 89.875 416.312 89.625C416.312 89.0833 416.667 88.6875 417.375 88.4375C418.125 88.1875 418.958 88 419.875 87.875C420.833 87.75 421.75 87.6458 422.625 87.5625C423.542 87.4375 424.188 87.25 424.562 87C424.688 86.9167 424.833 86.7292 425 86.4375C425.208 86.1458 425.417 85.8333 425.625 85.5C425.833 85.1667 426 84.8333 426.125 84.5C426.292 84.1667 426.417 83.8958 426.5 83.6875C426.625 83.3125 426.708 83.0208 426.75 82.8125C426.792 82.5625 426.833 82.3542 426.875 82.1875C426.917 81.9792 426.938 81.7708 426.938 81.5625C426.938 81.3125 426.938 81 426.938 80.625V76.1875C426.938 76.0625 426.938 75.7292 426.938 75.1875C426.938 74.6458 426.938 74.0625 426.938 73.4375C426.979 72.7708 427 72.1667 427 71.625C427 71.0417 427 70.6875 427 70.5625C426.958 70.1042 426.917 69.3958 426.875 68.4375C426.875 67.4792 426.854 66.4167 426.812 65.25C426.771 64.0417 426.729 62.7917 426.688 61.5C426.688 60.1667 426.667 58.9167 426.625 57.75C426.625 56.5417 426.625 55.4792 426.625 54.5625C426.625 53.6042 426.625 52.8958 426.625 52.4375C426.542 51.3958 426.271 50.3125 425.812 49.1875C425.396 48.0625 424.812 47.0417 424.062 46.125C423.312 45.1667 422.458 44.3958 421.5 43.8125C420.542 43.1875 419.5 42.8542 418.375 42.8125C417.917 42.7708 417.396 42.7917 416.812 42.875C416.229 42.9583 415.625 43.0625 415 43.1875C414.375 43.3125 413.771 43.4792 413.188 43.6875C412.604 43.8542 412.062 44.0208 411.562 44.1875C411.312 44.3125 410.917 44.5 410.375 44.75C409.875 45 409.375 45.2708 408.875 45.5625C408.375 45.8125 407.917 46.0417 407.5 46.25C407.125 46.4583 406.938 46.6042 406.938 46.6875C406.812 46.7708 406.562 47.0417 406.188 47.5C405.854 47.9583 405.5 48.4583 405.125 49C404.792 49.5417 404.458 50.0417 404.125 50.5C403.833 50.9583 403.646 51.25 403.562 51.375C402.812 52.4583 402.375 53.5833 402.25 54.75C402.167 55.9167 402 57.1667 401.75 58.5C401.667 58.6667 401.562 59 401.438 59.5C401.354 60 401.312 60.3542 401.312 60.5625V64.3125C401.312 64.4375 401.271 64.7292 401.188 65.1875C401.104 65.6458 401.021 66.1458 400.938 66.6875C400.854 67.2292 400.771 67.75 400.688 68.25C400.604 68.7083 400.562 69.0208 400.562 69.1875V75.5625C400.562 76.6875 400.562 77.7083 400.562 78.625C400.562 79.5417 400.583 80.4375 400.625 81.3125C400.708 82.1458 400.792 83.0208 400.875 83.9375C400.958 84.8125 401.104 85.8125 401.312 86.9375C401.562 87.3958 401.917 87.6875 402.375 87.8125C402.875 87.9375 403.417 88 404 88C404.333 88 404.667 87.9792 405 87.9375C405.333 87.8958 405.688 87.875 406.062 87.875C406.646 87.875 407.167 88.1875 407.625 88.8125C408.083 89.3958 408.312 90.0208 408.312 90.6875C408.312 91.4375 408.021 91.9375 407.438 92.1875C406.854 92.4375 406.208 92.5625 405.5 92.5625C405.167 92.5625 404.854 92.5417 404.562 92.5C404.312 92.4583 404.083 92.4375 403.875 92.4375C402.583 92.4375 401.292 92.3542 400 92.1875C398.708 92.0625 397.417 92 396.125 92C394.5 92 392.833 92.0625 391.125 92.1875C389.417 92.3542 387.688 92.4375 385.938 92.4375C385.646 92.4375 385.25 92.4583 384.75 92.5C384.25 92.5833 383.792 92.625 383.375 92.625C382.708 92.625 382.125 92.5208 381.625 92.3125C381.167 92.1042 380.938 91.7083 380.938 91.125ZM454.062 73.3125C454.604 73.1458 455.125 73.3958 455.625 74.0625C456.167 74.7292 456.646 75.5417 457.062 76.5C457.479 77.4167 457.833 78.3125 458.125 79.1875C458.417 80.0625 458.646 80.5833 458.812 80.75C458.854 80.8333 458.979 81.0208 459.188 81.3125C459.438 81.5625 459.688 81.8542 459.938 82.1875C460.188 82.4792 460.438 82.7708 460.688 83.0625C460.979 83.3542 461.188 83.5625 461.312 83.6875C461.312 83.7708 461.417 83.9375 461.625 84.1875C461.875 84.4375 462.062 84.5833 462.188 84.625C462.229 84.8333 462.375 85.2083 462.625 85.75C462.917 86.25 463.083 86.5417 463.125 86.625C463.458 87.125 463.958 87.5625 464.625 87.9375C465.333 88.2708 466.083 88.5417 466.875 88.75C467.667 88.9583 468.458 89.125 469.25 89.25C470.042 89.3333 470.708 89.375 471.25 89.375H471.688C473.104 89 474.396 88.3958 475.562 87.5625C476.771 86.7292 477.792 85.75 478.625 84.625C479.5 83.5 480.167 82.25 480.625 80.875C481.083 79.5 481.312 78.0625 481.312 76.5625C481.312 75.9792 481.271 75.25 481.188 74.375C481.104 73.5 480.792 72.7708 480.25 72.1875C480.083 72.0208 479.833 71.7708 479.5 71.4375C479.208 71.1042 478.875 70.7708 478.5 70.4375C478.167 70.1042 477.854 69.7917 477.562 69.5C477.312 69.2083 477.125 69.0417 477 69C476.417 68.5417 475.812 68.1875 475.188 67.9375C474.562 67.6458 473.917 67.4375 473.25 67.3125C472.625 67.1458 471.979 67.0208 471.312 66.9375C470.688 66.8125 470.062 66.6875 469.438 66.5625C468.146 66.2708 466.646 65.8542 464.938 65.3125C463.271 64.7292 461.625 64.0208 460 63.1875C458.417 62.3542 456.979 61.3958 455.688 60.3125C454.396 59.1875 453.5 57.8958 453 56.4375C452.875 56.2292 452.75 55.875 452.625 55.375C452.5 54.8333 452.375 54.25 452.25 53.625C452.167 53 452.104 52.375 452.062 51.75C452.021 51.125 452 50.5625 452 50.0625C452 49.3958 452.042 49 452.125 48.875C452.125 48.8333 452.125 48.7083 452.125 48.5C452.167 48.2917 452.188 48.0833 452.188 47.875C452.229 47.625 452.25 47.3958 452.25 47.1875C452.292 46.9792 452.312 46.8542 452.312 46.8125C452.312 46.7292 452.333 46.5417 452.375 46.25C452.458 45.9167 452.542 45.5833 452.625 45.25C452.75 44.9167 452.833 44.6042 452.875 44.3125C452.958 43.9792 453 43.7708 453 43.6875C453 43.6458 453.062 43.5208 453.188 43.3125C453.354 43.1042 453.521 42.8958 453.688 42.6875C453.896 42.4792 454.062 42.2917 454.188 42.125C454.354 41.9167 454.458 41.7917 454.5 41.75C454.625 41.625 454.771 41.4167 454.938 41.125C455.146 40.8333 455.354 40.5417 455.562 40.25C455.771 39.9167 455.958 39.625 456.125 39.375C456.333 39.125 456.479 38.9375 456.562 38.8125C456.812 38.3958 457.021 38.0625 457.188 37.8125C457.396 37.5625 457.625 37.3542 457.875 37.1875C458.125 37.0208 458.396 36.8542 458.688 36.6875C458.979 36.5208 459.354 36.2917 459.812 36C459.854 35.875 460 35.7083 460.25 35.5C460.542 35.25 460.708 35.125 460.75 35.125C460.833 35.0417 460.979 34.9375 461.188 34.8125C461.396 34.6458 461.542 34.5625 461.625 34.5625C461.917 34.4792 462.292 34.375 462.75 34.25C463.25 34.0833 463.729 33.9167 464.188 33.75C464.646 33.5833 465.042 33.4583 465.375 33.375C465.75 33.25 465.938 33.1875 465.938 33.1875C466.312 33.1042 466.688 33.0208 467.062 32.9375C467.396 32.8542 467.688 32.7917 467.938 32.75C468.229 32.6667 468.479 32.625 468.688 32.625C470.021 32.625 471.5 32.75 473.125 33C474.75 33.2083 476.188 33.4167 477.438 33.625C477.479 33.625 477.604 33.6875 477.812 33.8125C478.062 33.8958 478.312 34 478.562 34.125C478.854 34.2083 479.125 34.3125 479.375 34.4375C479.625 34.5208 479.792 34.5625 479.875 34.5625C480.333 34.5625 480.729 34.4583 481.062 34.25C481.396 34.0417 481.708 33.8125 482 33.5625C482.333 33.3125 482.646 33.0833 482.938 32.875C483.271 32.6667 483.667 32.5625 484.125 32.5625C484.458 32.5625 484.729 32.7083 484.938 33C485.146 33.2917 485.292 33.6458 485.375 34.0625C485.5 34.4375 485.562 34.8333 485.562 35.25C485.604 35.625 485.625 35.9167 485.625 36.125C485.625 36.9583 485.458 37.75 485.125 38.5C484.833 39.25 484.646 40 484.562 40.75C484.479 41.2917 484.438 42 484.438 42.875C484.438 43.75 484.375 44.6042 484.25 45.4375C484.125 46.2292 483.854 46.9375 483.438 47.5625C483.021 48.1458 482.375 48.4375 481.5 48.4375C480.917 48.4375 480.458 48.1875 480.125 47.6875C479.833 47.1458 479.583 46.5417 479.375 45.875C479.167 45.1667 478.958 44.4583 478.75 43.75C478.542 43.0417 478.271 42.5 477.938 42.125C477.438 41.5 476.854 40.8542 476.188 40.1875C475.562 39.5208 474.875 38.9167 474.125 38.375C473.375 37.7917 472.562 37.3333 471.688 37C470.854 36.625 469.979 36.4375 469.062 36.4375H468.75C467.375 36.7708 466.125 37.1875 465 37.6875C463.917 38.1875 462.979 38.8333 462.188 39.625C461.438 40.4167 460.854 41.375 460.438 42.5C460.021 43.625 459.812 44.9792 459.812 46.5625V47.25C459.812 47.4583 459.875 47.75 460 48.125C460.125 48.4583 460.25 48.8333 460.375 49.25C460.542 49.6667 460.708 50.0625 460.875 50.4375C461.042 50.7708 461.188 51 461.312 51.125C461.312 51.25 461.333 51.375 461.375 51.5C461.458 51.5833 461.542 51.6667 461.625 51.75C462.333 52.3333 462.875 52.75 463.25 53C463.667 53.25 464.312 53.4583 465.188 53.625C465.229 53.6667 465.396 53.7083 465.688 53.75C465.979 53.7917 466.312 53.8333 466.688 53.875C467.062 53.875 467.417 53.8958 467.75 53.9375C468.083 53.9792 468.312 54.0208 468.438 54.0625C468.479 54.1042 468.625 54.1875 468.875 54.3125C469.167 54.3958 469.458 54.5 469.75 54.625C470.083 54.7083 470.375 54.7917 470.625 54.875C470.917 54.9583 471.083 55 471.125 55C471.25 55.0417 471.542 55.125 472 55.25C472.5 55.3333 473.021 55.4375 473.562 55.5625C474.104 55.6875 474.604 55.7917 475.062 55.875C475.562 55.9583 475.875 56 476 56C476.167 56.0833 476.417 56.1667 476.75 56.25C477.125 56.2917 477.354 56.3542 477.438 56.4375C477.479 56.4792 477.562 56.5625 477.688 56.6875C477.854 56.7708 478.021 56.875 478.188 57L478.812 57.5C478.896 57.5417 479.083 57.6042 479.375 57.6875C479.667 57.7708 479.979 57.875 480.312 58C480.646 58.0833 480.938 58.1875 481.188 58.3125C481.479 58.3958 481.667 58.4583 481.75 58.5C481.792 58.5 481.875 58.5625 482 58.6875C482.167 58.8125 482.333 58.9583 482.5 59.125C482.667 59.25 482.812 59.3958 482.938 59.5625C483.104 59.6875 483.208 59.75 483.25 59.75C483.292 59.8333 483.396 59.9375 483.562 60.0625C483.729 60.1458 483.917 60.25 484.125 60.375C484.333 60.4583 484.521 60.5417 484.688 60.625C484.896 60.7083 485.021 60.75 485.062 60.75C486.771 62 488 63.5208 488.75 65.3125C489.542 67.0625 489.938 69 489.938 71.125C489.938 71.1667 489.917 71.25 489.875 71.375C489.875 71.4583 489.875 71.5625 489.875 71.6875V72.1875C489.875 72.5625 489.854 73.125 489.812 73.875C489.771 74.625 489.708 75.3958 489.625 76.1875C489.583 76.9375 489.542 77.625 489.5 78.25C489.458 78.875 489.438 79.25 489.438 79.375C489.312 80.1667 489 81.0625 488.5 82.0625C488.042 83.0208 487.458 83.9792 486.75 84.9375C486.083 85.8542 485.375 86.7083 484.625 87.5C483.917 88.2917 483.25 88.9167 482.625 89.375C482.333 89.625 481.854 89.8958 481.188 90.1875C480.521 90.4792 479.792 90.7708 479 91.0625C478.208 91.3125 477.438 91.5625 476.688 91.8125C475.938 92.0208 475.354 92.1875 474.938 92.3125H469.875C469.5 92.3125 469.021 92.2917 468.438 92.25C467.854 92.2083 467.271 92.1458 466.688 92.0625C466.146 92.0208 465.667 91.9792 465.25 91.9375C464.833 91.8958 464.604 91.875 464.562 91.875C464.438 91.875 464.208 91.8542 463.875 91.8125C463.583 91.7708 463.271 91.7292 462.938 91.6875C462.646 91.6042 462.375 91.5417 462.125 91.5C461.875 91.4167 461.708 91.375 461.625 91.375C461.542 91.375 461.312 91.3333 460.938 91.25C460.604 91.125 460.333 91.0208 460.125 90.9375C459.667 90.7292 459.188 90.5833 458.688 90.5C458.229 90.375 457.75 90.25 457.25 90.125C456.75 89.9583 456.271 89.7708 455.812 89.5625C455.354 89.3125 454.917 88.9375 454.5 88.4375C454.417 88.3125 454.312 88.1042 454.188 87.8125C454.062 87.5208 453.938 87.2292 453.812 86.9375C453.688 86.6042 453.562 86.3125 453.438 86.0625C453.354 85.8125 453.312 85.625 453.312 85.5L453 74.25C453 74.0833 453.125 73.8958 453.375 73.6875C453.667 73.4375 453.896 73.3125 454.062 73.3125Z" fill="black"/>
</svg>
